<?xml version="1.0" encoding="UTF-8" standalone="no"?>
<!DOCTYPE svg PUBLIC "-//W3C//DTD SVG 1.1//EN" "http://www.w3.org/Graphics/SVG/1.1/DTD/svg11.dtd">
<svg width="100%" height="100%" viewBox="0 0 1035 169" version="1.1" xmlns="http://www.w3.org/2000/svg" xmlns:xlink="http://www.w3.org/1999/xlink" xml:space="preserve" xmlns:serif="http://www.serif.com/" style="fill-rule:evenodd;clip-rule:evenodd;stroke-linejoin:round;stroke-miterlimit:2;">
    <g transform="matrix(0.319796,0,0,0.319796,261.278,34.6666)">
        <g transform="matrix(0,-1,-1,0,-560.921,-67.0141)">
            <path d="M-222.843,-222.843C-345.916,-222.843 -445.686,-123.073 -445.686,-0C-445.686,123.072 -345.916,222.843 -222.843,222.843C-99.77,222.843 0,123.072 0,-0C0,-123.073 -99.77,-222.843 -222.843,-222.843" style="fill:white;fill-rule:nonzero;"/>
        </g>
        <g transform="matrix(1,0,0,1,-560.306,-61.519)">
            <path d="M0,434.695C-119.847,434.695 -217.349,337.193 -217.349,217.348C-217.349,97.502 -119.847,0 0,0C119.846,0 217.347,97.502 217.347,217.348C217.347,337.193 119.846,434.695 0,434.695" style="fill:rgb(190,30,45);fill-rule:nonzero;"/>
        </g>
        <g transform="matrix(0,-1,-1,0,-560.307,-50.7791)">
            <path d="M-206.608,-206.608C-320.714,-206.608 -413.216,-114.107 -413.216,0C-413.216,114.107 -320.714,206.608 -206.608,206.608C-92.502,206.608 0,114.107 0,0C0,-114.107 -92.502,-206.608 -206.608,-206.608" style="fill:rgb(35,31,32);fill-rule:nonzero;"/>
        </g>
        <g transform="matrix(1,0,0,1,-664.449,1.6438)">
            <path d="M0,92.148C-0.184,91.794 -0.184,91.346 0,90.815L30.483,19.177C30.759,18.646 30.622,18.378 30.072,18.378L18.813,18.378C18.446,18.378 18.17,18.603 17.988,19.043L17.438,23.573C17.348,24.017 17.141,24.393 16.82,24.703C16.5,25.014 16.111,25.169 15.654,25.169L0.961,25.169C0.501,25.169 0.136,25.014 -0.138,24.703C-0.412,24.393 -0.504,24.017 -0.412,23.573L2.609,1.069C2.699,0.625 2.906,0.249 3.226,-0.065C3.546,-0.375 3.936,-0.531 4.394,-0.531L54.927,-0.531C55.383,-0.531 55.772,-0.375 56.095,-0.065C56.413,0.249 56.527,0.625 56.438,1.069L54.377,17.446L53.828,19.31L22.931,91.346C22.657,92.235 22.062,92.679 21.147,92.679L1.099,92.679C0.55,92.679 0.183,92.502 0,92.148" style="fill:white;fill-rule:nonzero;"/>
        </g>
        <g transform="matrix(1,0,0,1,-616.32,74.7495)">
            <path d="M0,17.576C-1.877,15.712 -2.814,13.314 -2.814,10.384C-2.814,6.57 -1.535,3.416 1.03,0.931C3.591,-1.554 6.705,-2.796 10.366,-2.796C13.479,-2.796 15.95,-1.908 17.783,-0.134C19.612,1.643 20.528,4.041 20.528,7.057C20.528,10.785 19.245,13.939 16.684,16.511C14.119,19.086 11.054,20.372 7.483,20.372C4.371,20.372 1.875,19.44 0,17.576" style="fill:white;fill-rule:nonzero;"/>
        </g>
        <g transform="matrix(1,0,0,1,-560.088,66.8929)">
            <path d="M0,-39.148C-0.184,-36.927 -0.231,-35.374 -0.138,-34.488C-0.138,-32.802 0.205,-31.469 0.892,-30.494C1.578,-29.515 2.516,-29.027 3.707,-29.027C4.988,-29.027 6.111,-29.536 7.072,-30.559C8.033,-31.581 8.696,-32.932 9.063,-34.622C9.612,-37.104 9.886,-38.57 9.886,-39.014C10.069,-41.055 10.113,-42.479 10.024,-43.277C10.024,-44.96 9.702,-46.293 9.063,-47.272C8.42,-48.247 7.459,-48.734 6.178,-48.734C4.988,-48.734 3.934,-48.225 3.021,-47.203C2.104,-46.181 1.417,-44.873 0.961,-43.277C0.594,-42.03 0.274,-40.658 0,-39.148M5.081,-1.199C5.355,-3.417 5.444,-5.194 5.355,-6.523C5.444,-8.301 5.148,-9.699 4.462,-10.721C3.775,-11.739 2.79,-12.249 1.511,-12.249C0.319,-12.249 -0.756,-11.718 -1.717,-10.652C-2.678,-9.586 -3.388,-8.167 -3.846,-6.39C-4.396,-3.638 -4.669,-2.041 -4.669,-1.597C-4.945,0.357 -5.081,2.178 -5.081,3.861C-5.081,5.638 -4.738,7.036 -4.051,8.055C-3.365,9.077 -2.427,9.586 -1.236,9.586C0.136,9.586 1.304,9.034 2.265,7.921C3.226,6.812 3.934,5.328 4.394,3.46C4.759,1.596 4.988,0.047 5.081,-1.199M20.322,-20.506C23.069,-18.642 24.944,-16.023 25.952,-12.65C26.684,-9.988 27.051,-7.235 27.051,-4.393C27.051,-3.507 26.958,-1.998 26.777,0.133C26.317,4.306 25.036,8.344 22.931,12.252C20.368,17.222 16.729,21.17 12.015,24.1C7.299,27.029 2.104,28.496 -3.57,28.496C-9.249,28.496 -14.099,27.054 -18.125,24.168C-22.156,21.282 -24.855,17.309 -26.228,12.252C-26.687,10.385 -26.915,8.037 -26.915,5.194C-26.915,2.976 -26.825,1.29 -26.641,0.133C-26.091,-4.66 -24.855,-8.832 -22.933,-12.382C-21.195,-15.846 -18.585,-18.508 -15.104,-20.373C-14.648,-20.64 -14.604,-20.95 -14.969,-21.304C-17.807,-23.258 -19.685,-25.964 -20.599,-29.428C-21.333,-32 -21.696,-34.575 -21.696,-37.15C-21.696,-38.126 -21.606,-39.502 -21.422,-41.279C-20.873,-45.892 -19.591,-49.887 -17.578,-53.264C-15.104,-57.7 -11.536,-61.207 -6.867,-63.783C-2.198,-66.355 2.973,-67.644 8.649,-67.644C14.144,-67.644 18.902,-66.423 22.931,-63.981C26.958,-61.54 29.658,-57.967 31.033,-53.264C31.856,-50.866 32.27,-48.157 32.27,-45.141C32.27,-39.191 30.895,-33.997 28.15,-29.562C26.228,-26.188 23.618,-23.479 20.322,-21.438C19.864,-20.994 19.864,-20.683 20.322,-20.506" style="fill:white;fill-rule:nonzero;"/>
        </g>
        <g transform="matrix(1,0,0,1,-528.645,1.5792)">
            <path d="M0,92.278C-0.272,91.967 -0.365,91.591 -0.272,91.147L11.123,1.134C11.212,0.69 11.42,0.314 11.741,0C12.061,-0.311 12.449,-0.466 12.911,-0.466L31.859,-0.466C32.314,-0.466 32.683,-0.311 32.958,0C33.23,0.314 33.323,0.69 33.23,1.134L29.386,31.226C29.386,31.58 29.476,31.757 29.662,31.757C29.844,31.757 30.027,31.624 30.209,31.36L48.063,0.733C48.518,-0.065 49.207,-0.466 50.123,-0.466L70.033,-0.466C70.674,-0.466 71.083,-0.311 71.27,0C71.452,0.314 71.359,0.78 70.994,1.398L46.827,40.546C46.733,40.636 46.64,40.748 46.551,40.878C46.458,41.011 46.458,41.17 46.551,41.343L60.557,90.88L60.694,91.411C60.694,91.768 60.534,92.079 60.214,92.343C59.894,92.61 59.506,92.744 59.048,92.744L39,92.744C37.991,92.744 37.395,92.343 37.212,91.545L29.248,60.386C29.159,60.119 29.021,59.986 28.838,59.986C28.652,59.986 28.47,60.119 28.287,60.386L25.266,65.18C25.084,65.537 24.994,65.801 24.994,65.978L21.835,91.147C21.743,91.591 21.538,91.967 21.217,92.278C20.893,92.589 20.506,92.744 20.047,92.744L1.099,92.744C0.641,92.744 0.275,92.589 0,92.278" style="fill:white;fill-rule:nonzero;"/>
        </g>
        <g transform="matrix(1,0,0,1,-423.862,192.762)">
            <path d="M0,-10.979C0.233,-11.581 0.47,-12.183 0.635,-12.816C0.781,-12.192 0.97,-11.58 1.189,-10.979L0,-10.979ZM82.094,-96.625L70.923,-96.625C67.064,-96.625 63.378,-95.385 60.352,-93.096C55.836,-95.415 50.65,-96.625 45.125,-96.625L25.751,-96.625C22.024,-96.625 18.451,-95.463 15.462,-93.299C11.003,-95.547 5.889,-96.72 0.449,-96.72L-18.927,-96.72C-20.528,-96.72 -22.105,-96.504 -23.634,-96.075C-25.039,-96.441 -26.474,-96.625 -27.919,-96.625L-60.836,-96.625C-62.248,-96.625 -63.648,-96.452 -65.018,-96.109C-66.42,-96.452 -67.865,-96.625 -69.335,-96.625L-81.197,-96.625C-83.947,-96.625 -86.584,-96.035 -88.976,-94.897C-91.328,-96.035 -93.95,-96.625 -96.717,-96.625L-107.886,-96.625C-112.395,-96.625 -116.677,-94.924 -119.971,-91.81C-122.479,-89.402 -124.174,-86.353 -124.878,-82.974L-124.991,-82.417L-129.148,-50.402L-132.029,-82.132L-132.174,-82.881C-133.739,-90.973 -140.701,-96.625 -149.103,-96.625L-162.052,-96.625C-168.187,-96.625 -173.69,-93.583 -176.789,-88.811C-182.815,-93.997 -190.523,-96.625 -199.712,-96.625L-217.011,-96.625C-221.507,-96.625 -225.787,-94.927 -229.096,-91.81C-230.169,-90.78 -231.093,-89.632 -231.854,-88.394C-234.791,-93.356 -240.265,-96.625 -246.664,-96.625L-257.833,-96.625C-261.592,-96.625 -265.194,-95.443 -268.197,-93.244C-273.254,-95.986 -279.158,-97.373 -285.807,-97.373C-294.528,-97.373 -302.207,-95.015 -308.676,-90.355C-314.08,-94.534 -320.812,-96.72 -328.407,-96.72L-347.781,-96.72C-352.264,-96.72 -356.523,-95.039 -359.796,-91.968C-362.356,-89.542 -364.077,-86.458 -364.77,-83.072L-364.886,-82.512L-373.108,-19.099C-373.897,-14.201 -372.431,-9.284 -369.099,-5.623C-365.872,-2.05 -361.199,0 -356.28,0L-345.112,0C-340.996,0 -336.987,-1.442 -333.813,-4.069C-330.82,-6.559 -328.823,-9.849 -328.037,-13.577L-327.908,-14.188L-326.816,-22.759C-325.482,-16.817 -322.503,-11.733 -317.912,-7.583C-311.803,-2.056 -303.895,0.748 -294.406,0.748C-293.176,0.748 -291.972,0.684 -290.781,0.588C-291.02,1.278 -291.236,1.976 -291.384,2.697L-291.496,3.243L-299.716,66.546C-300.507,71.449 -299.035,76.373 -295.686,80.048C-292.457,83.606 -287.794,85.647 -282.891,85.647L-271.72,85.647C-267.619,85.647 -263.618,84.212 -260.442,81.594C-257.454,79.115 -255.452,75.832 -254.65,72.09L-254.519,71.473L-254.315,69.879C-252.852,72.678 -250.931,75.23 -248.557,77.522C-242.468,83.409 -234.564,86.394 -225.067,86.394C-218.635,86.394 -212.727,85.028 -207.449,82.329C-204.523,84.463 -200.929,85.647 -197.192,85.647L-186.121,85.647C-183.58,85.647 -181.044,85.083 -178.73,84.024C-176.436,85.093 -173.916,85.647 -171.294,85.647L-158.642,85.647C-154.147,85.647 -149.895,83.974 -146.668,80.936C-145.46,79.798 -144.452,78.504 -143.633,77.106C-143.043,78.142 -142.336,79.12 -141.514,80.019C-138.286,83.596 -133.614,85.647 -128.693,85.647L-117.524,85.647C-115.08,85.647 -112.691,85.148 -110.481,84.19C-108.281,85.149 -105.876,85.647 -103.389,85.647L-91.923,85.647C-88.439,85.647 -85.092,84.634 -82.235,82.742C-77.506,85.168 -72.072,86.394 -66.025,86.394C-59.594,86.394 -53.687,85.029 -48.41,82.329C-45.481,84.463 -41.888,85.647 -38.152,85.647L-27.081,85.647C-24.536,85.647 -21.999,85.083 -19.687,84.026C-17.395,85.093 -14.875,85.647 -12.253,85.647L0.398,85.647C4.904,85.647 9.153,83.977 12.347,80.959C14.892,78.574 16.627,75.52 17.369,72.102L17.499,71.493L25.733,8.085C26.169,5.327 25.861,2.56 24.922,0L28.42,0C30.867,0 33.255,-0.498 35.464,-1.456C37.666,-0.498 40.069,0 42.556,0L54.021,0C55.451,0 56.864,-0.176 58.243,-0.524C59.618,-0.176 61.017,0 62.422,0L73.595,0C77.742,0 81.746,-1.44 84.849,-4.037C87.836,-6.508 89.845,-9.78 90.655,-13.508L90.79,-14.134L99.201,-78.907L99.201,-79.891C99.201,-89.274 91.686,-96.625 82.094,-96.625" style="fill:rgb(190,30,45);fill-rule:nonzero;"/>
        </g>
        <g transform="matrix(1,0,0,1,-421.144,191.69)">
            <path d="M0,-8.837L-4.282,-8.837L-3.691,-10.359C-3.471,-10.927 -3.262,-11.464 -3.118,-12.016L-2.023,-16.194L-1.04,-11.988C-0.911,-11.436 -0.742,-10.875 -0.523,-10.274L0,-8.837ZM-85.022,82.574L-84.464,82.86C-79.893,85.205 -74.604,86.394 -68.743,86.394C-62.498,86.394 -56.735,85.066 -51.615,82.447L-51.028,82.146L-50.497,82.535C-47.743,84.542 -44.325,85.647 -40.87,85.647L-29.798,85.647C-27.434,85.647 -25.031,85.121 -22.85,84.124L-22.4,83.918L-21.953,84.126C-19.784,85.136 -17.435,85.647 -14.97,85.647L-2.319,85.647C1.912,85.647 5.894,84.087 8.893,81.252C11.283,79.013 12.911,76.142 13.604,72.946L13.725,72.383L21.954,9.018C22.354,6.484 22.091,3.873 21.199,1.439L20.671,0L25.702,0C28.003,0 30.229,-0.46 32.32,-1.366L32.747,-1.552L33.173,-1.366C35.257,-0.46 37.5,0 39.839,0L51.303,0C52.639,0 53.972,-0.165 55.264,-0.49L55.525,-0.556L55.787,-0.49C57.076,-0.165 58.394,0 59.704,0L70.876,0C74.772,0 78.525,-1.345 81.445,-3.787C84.251,-6.108 86.133,-9.177 86.891,-12.665L87.016,-13.245L95.412,-77.905L95.412,-78.82C95.412,-87.604 88.368,-94.483 79.376,-94.483L68.205,-94.483C64.577,-94.483 61.145,-93.338 58.28,-91.171L57.743,-90.765L57.145,-91.072C52.736,-93.336 47.777,-94.483 42.407,-94.483L23.033,-94.483C19.535,-94.483 16.194,-93.404 13.372,-91.36L12.843,-90.979L12.261,-91.272C7.911,-93.465 3.022,-94.578 -2.269,-94.578L-21.645,-94.578C-23.146,-94.578 -24.632,-94.375 -26.062,-93.973L-26.341,-93.895L-26.621,-93.968C-27.936,-94.31 -29.287,-94.483 -30.637,-94.483L-63.554,-94.483C-64.875,-94.483 -66.193,-94.32 -67.475,-93.999L-67.733,-93.934L-67.991,-93.997C-69.307,-94.32 -70.673,-94.483 -72.053,-94.483L-83.914,-94.483C-86.504,-94.483 -88.967,-93.937 -91.233,-92.859L-91.698,-92.638L-92.16,-92.862C-94.384,-93.938 -96.832,-94.483 -99.435,-94.483L-110.604,-94.483C-114.838,-94.483 -118.868,-92.877 -121.953,-89.961C-124.298,-87.709 -125.889,-84.845 -126.547,-81.684L-126.652,-81.169L-132.055,-39.565L-135.809,-80.911L-135.943,-81.606C-137.409,-89.188 -143.938,-94.483 -151.821,-94.483L-164.77,-94.483C-170.457,-94.483 -175.63,-91.744 -178.609,-87.156L-179.277,-86.128L-180.206,-86.928C-186.031,-91.941 -193.508,-94.483 -202.43,-94.483L-219.729,-94.483C-223.951,-94.483 -227.982,-92.877 -231.079,-89.959C-232.073,-89.006 -232.943,-87.928 -233.66,-86.762L-234.589,-85.25L-235.494,-86.777C-238.35,-91.603 -243.542,-94.483 -249.382,-94.483L-260.55,-94.483C-264.081,-94.483 -267.446,-93.386 -270.282,-91.309L-270.829,-90.909L-271.425,-91.232C-276.32,-93.885 -282.073,-95.231 -288.524,-95.231C-297.004,-95.231 -304.488,-92.938 -310.769,-88.415L-311.417,-87.947L-312.049,-88.437C-317.244,-92.454 -323.84,-94.578 -331.125,-94.578L-350.499,-94.578C-354.708,-94.578 -358.714,-92.993 -361.781,-90.116C-364.177,-87.845 -365.789,-84.963 -366.438,-81.786L-366.548,-81.263L-374.764,-17.89C-375.506,-13.283 -374.141,-8.695 -371.024,-5.272C-367.998,-1.92 -363.615,0 -358.999,0L-347.83,0C-343.962,0 -340.192,-1.358 -337.214,-3.822C-334.41,-6.155 -332.538,-9.235 -331.802,-12.727L-331.682,-13.295L-329.826,-27.873L-328.49,-21.922C-327.207,-16.209 -324.321,-11.292 -319.912,-7.305C-314.005,-1.962 -306.338,0.748 -297.124,0.748C-296.047,0.748 -294.89,0.697 -293.584,0.592L-291.953,0.461L-292.487,2.009C-292.761,2.803 -292.936,3.412 -293.054,3.985L-293.157,4.491L-301.373,67.755C-302.116,72.366 -300.744,76.962 -297.612,80.398C-294.584,83.735 -290.209,85.647 -285.609,85.647L-274.437,85.647C-270.584,85.647 -266.821,84.295 -263.841,81.839C-261.042,79.517 -259.165,76.438 -258.415,72.937L-258.293,72.364L-257.661,67.435L-256.083,70.455C-254.679,73.143 -252.811,75.623 -250.531,77.823C-244.648,83.51 -236.996,86.394 -227.785,86.394C-221.54,86.394 -215.776,85.066 -210.654,82.447L-210.068,82.146L-209.536,82.535C-206.785,84.542 -203.366,85.647 -199.91,85.647L-188.839,85.647C-186.476,85.647 -184.075,85.12 -181.894,84.121L-181.444,83.916L-180.996,84.125C-178.827,85.135 -176.477,85.647 -174.012,85.647L-161.359,85.647C-157.14,85.647 -153.147,84.078 -150.12,81.227C-149.023,80.194 -148.066,78.985 -147.274,77.636L-146.335,76.037L-145.419,77.648C-144.863,78.625 -144.198,79.54 -143.442,80.367C-140.411,83.725 -136.028,85.647 -131.411,85.647L-120.241,85.647C-117.945,85.647 -115.719,85.187 -113.625,84.279L-113.198,84.094L-112.771,84.28C-110.689,85.187 -108.448,85.647 -106.107,85.647L-94.641,85.647C-91.383,85.647 -88.238,84.705 -85.544,82.92L-85.022,82.574ZM-68.743,88.536C-74.713,88.536 -80.142,87.361 -84.889,85.042C-87.814,86.841 -91.172,87.789 -94.641,87.789L-106.107,87.789C-108.585,87.789 -110.969,87.33 -113.2,86.423C-115.439,87.33 -117.806,87.789 -120.241,87.789L-131.411,87.789C-136.633,87.789 -141.596,85.608 -145.026,81.808C-145.502,81.288 -145.948,80.735 -146.358,80.155C-147.044,81.113 -147.812,81.994 -148.652,82.786C-152.079,86.012 -156.592,87.789 -161.359,87.789L-174.012,87.789C-176.624,87.789 -179.124,87.277 -181.452,86.268C-183.789,87.264 -186.332,87.789 -188.839,87.789L-199.91,87.789C-203.594,87.789 -207.243,86.676 -210.259,84.642C-215.538,87.226 -221.431,88.536 -227.785,88.536C-237.57,88.536 -245.724,85.45 -252.019,79.363C-253.72,77.721 -255.21,75.931 -256.468,74.018C-257.404,77.734 -259.471,80.996 -262.476,83.49C-265.841,86.263 -270.088,87.789 -274.437,87.789L-285.609,87.789C-290.812,87.789 -295.765,85.621 -299.197,81.839C-302.769,77.919 -304.334,72.673 -303.491,67.446L-295.263,4.1L-295.151,3.554C-295.101,3.307 -295.043,3.065 -294.981,2.831C-295.734,2.871 -296.443,2.889 -297.124,2.889C-306.886,2.889 -315.036,-0.006 -321.349,-5.717C-324.816,-8.853 -327.409,-12.526 -329.093,-16.68L-329.578,-12.896L-329.707,-12.285C-330.543,-8.317 -332.666,-4.821 -335.846,-2.174C-339.209,0.609 -343.464,2.141 -347.83,2.141L-358.999,2.141C-364.22,2.141 -369.182,-0.036 -372.611,-3.834C-376.166,-7.739 -377.725,-12.976 -376.883,-18.198L-368.652,-81.659L-368.536,-82.219C-367.798,-85.825 -365.971,-89.096 -363.25,-91.674C-359.781,-94.929 -355.254,-96.719 -350.499,-96.719L-331.125,-96.719C-323.653,-96.719 -316.843,-94.608 -311.374,-90.608C-304.857,-95.097 -297.175,-97.373 -288.524,-97.373C-281.968,-97.373 -276.074,-96.045 -270.995,-93.426C-267.909,-95.522 -264.312,-96.625 -260.55,-96.625L-249.382,-96.625C-243.352,-96.625 -237.925,-93.896 -234.557,-89.249C-233.955,-90.053 -233.286,-90.81 -232.555,-91.511C-229.052,-94.811 -224.5,-96.625 -219.729,-96.625L-202.43,-96.625C-193.436,-96.625 -185.802,-94.163 -179.719,-89.305C-176.27,-93.91 -170.769,-96.625 -164.77,-96.625L-151.821,-96.625C-142.898,-96.625 -135.504,-90.616 -133.841,-82.013L-133.68,-81.158L-131.678,-59.098L-128.758,-81.56L-128.645,-82.116C-127.897,-85.707 -126.094,-88.954 -123.43,-91.511C-119.94,-94.811 -115.387,-96.625 -110.604,-96.625L-99.435,-96.625C-96.685,-96.625 -94.082,-96.081 -91.69,-95.005C-89.264,-96.081 -86.65,-96.625 -83.914,-96.625L-72.053,-96.625C-70.591,-96.625 -69.141,-96.462 -67.739,-96.138C-66.368,-96.462 -64.961,-96.625 -63.554,-96.625L-30.637,-96.625C-29.201,-96.625 -27.765,-96.452 -26.362,-96.111C-24.829,-96.515 -23.244,-96.719 -21.645,-96.719L-2.269,-96.719C3.129,-96.719 8.145,-95.626 12.649,-93.467C15.723,-95.535 19.299,-96.625 23.033,-96.625L42.407,-96.625C47.882,-96.625 52.967,-95.498 57.53,-93.274C60.657,-95.468 64.333,-96.625 68.205,-96.625L79.376,-96.625C89.569,-96.625 97.554,-88.804 97.554,-78.82L97.544,-77.698L89.118,-12.837L88.983,-12.212C88.122,-8.249 85.989,-4.767 82.814,-2.141C79.514,0.62 75.273,2.141 70.876,2.141L59.704,2.141C58.306,2.141 56.901,1.976 55.525,1.65C54.144,1.976 52.726,2.141 51.303,2.141L39.839,2.141C37.362,2.141 34.979,1.683 32.746,0.777C30.509,1.683 28.142,2.141 25.702,2.141L23.668,2.141C24.308,4.493 24.448,6.949 24.072,9.324L15.828,72.788L15.698,73.397C14.911,77.023 13.066,80.277 10.36,82.812C6.966,86.02 2.461,87.789 -2.319,87.789L-14.97,87.789C-17.582,87.789 -20.081,87.278 -22.408,86.269C-24.746,87.265 -27.29,87.789 -29.798,87.789L-40.87,87.789C-44.552,87.789 -48.201,86.676 -51.219,84.642C-56.497,87.226 -62.389,88.536 -68.743,88.536" style="fill:white;fill-rule:nonzero;"/>
        </g>
        <g transform="matrix(1,0,0,1,-698.443,110.824)">
            <path d="M0,67.249C0.301,68.47 0.875,69.618 1.752,70.582C3.365,72.375 5.732,73.403 8.247,73.403L41.263,73.403C42.653,73.403 43.975,73.063 45.173,72.489C46.365,73.066 47.688,73.403 49.069,73.403L66.368,73.403C72.38,73.403 77.706,72.013 82.28,69.298C82.466,69.632 82.67,69.957 82.91,70.264C84.468,72.259 86.942,73.403 89.696,73.403L100.866,73.403C104.94,73.403 108.4,70.891 109.437,67.28L110.776,62.938L111.061,62.938L111.174,65.498C111.278,70.019 114.928,73.403 119.745,73.403L131.31,73.403C136.198,73.403 139.884,69.959 139.884,65.391L139.884,64.809L134.093,1.01L134.029,0.678C133.25,-3.345 129.733,-6.154 125.478,-6.154L112.529,-6.154C108.553,-6.154 105.16,-3.759 104,-0.167L99.336,13.082C98.683,7.875 96.42,3.379 92.649,-0.03C88.157,-4.094 82.175,-6.154 74.868,-6.154L57.57,-6.154C55.257,-6.154 53.083,-5.306 51.394,-3.715C50.129,-2.501 49.279,-0.974 48.937,0.699L48.887,0.94L42.779,47.956C42.733,47.955 42.692,47.943 42.646,47.943L30.586,47.943L36.492,2.479L36.492,2.046C36.492,-2.628 32.806,-6.154 27.917,-6.154L16.748,-6.154C14.429,-6.154 12.251,-5.302 10.572,-3.715C9.313,-2.506 8.463,-0.986 8.117,0.68L8.108,0.725C7.626,0.195 7.119,-0.318 6.576,-0.804C2.056,-4.85 -3.933,-6.901 -11.225,-6.901C-18.968,-6.901 -25.608,-4.592 -30.961,-0.039C-32.273,1.077 -33.452,2.285 -34.501,3.579C-35.183,2.541 -35.938,1.547 -36.803,0.623C-41.015,-3.873 -46.901,-6.248 -53.826,-6.248L-73.2,-6.248C-75.504,-6.248 -77.675,-5.403 -79.344,-3.838C-80.627,-2.621 -81.488,-1.084 -81.834,0.605L-81.883,0.846L-90.102,64.197C-90.476,66.522 -89.782,68.841 -88.185,70.594C-86.573,72.38 -84.208,73.403 -81.7,73.403L-70.531,73.403C-68.396,73.403 -66.329,72.665 -64.69,71.309C-63.19,70.059 -62.192,68.427 -61.805,66.59L-61.748,66.323L-59.283,46.96L-58.274,46.96C-52.796,46.96 -47.887,45.551 -43.617,42.772L-44.282,47.931C-44.438,49.55 -44.511,50.704 -44.511,51.563C-44.511,58.344 -42.187,63.884 -37.604,68.027C-33.115,72.09 -27.132,74.15 -19.824,74.15C-12.093,74.15 -5.445,71.848 -0.063,67.308C-0.041,67.289 -0.022,67.268 0,67.249" style="fill:rgb(255,221,21);fill-rule:nonzero;"/>
        </g>
        <g transform="matrix(1,0,0,1,-470.886,130.036)">
            <path d="M0,28.731L0.208,27.094L5.562,27.094C7.9,27.094 10.089,26.231 11.674,24.715C12.963,23.506 13.833,21.973 14.189,20.281L14.242,20.025L15.445,10.84C15.816,8.528 15.127,6.213 13.521,4.435C11.908,2.656 9.546,1.637 7.044,1.637L3.517,1.637L3.723,0.094L17.019,0.094L13.29,28.85C12.86,28.789 12.429,28.731 11.987,28.731L0,28.731ZM-25.09,1.699L-27.908,23.392L-31.466,11.398L-25.09,1.699ZM129.117,-25.366L117.947,-25.366C115.629,-25.366 113.451,-24.515 111.793,-22.947C110.515,-21.73 109.658,-20.197 109.313,-18.513L109.28,-18.354C109.205,-18.434 109.142,-18.522 109.066,-18.601C104.827,-23.027 98.978,-25.366 92.149,-25.366L72.775,-25.366C70.456,-25.366 68.277,-24.515 66.599,-22.928C65.419,-21.794 64.618,-20.381 64.235,-18.836C60.042,-23.163 54.262,-25.46 47.473,-25.46L28.098,-25.46C26.439,-25.46 24.858,-25.007 23.48,-24.182C22.17,-24.923 20.678,-25.366 19.104,-25.366L-13.813,-25.366C-15.291,-25.366 -16.695,-24.984 -17.969,-24.319C-19.244,-24.995 -20.729,-25.366 -22.312,-25.366L-34.173,-25.366C-37.476,-25.366 -40.417,-23.767 -42.086,-21.074C-43.492,-23.671 -46.303,-25.366 -49.693,-25.366L-60.862,-25.366C-63.182,-25.366 -65.359,-24.515 -67.039,-22.928C-68.298,-21.718 -69.147,-20.199 -69.493,-18.532L-69.545,-18.282L-77.763,44.984C-78.138,47.31 -77.444,49.628 -75.858,51.37C-74.246,53.163 -71.878,54.191 -69.363,54.191L-58.193,54.191C-56.061,54.191 -53.993,53.452 -52.375,52.112C-51.393,51.301 -50.625,50.326 -50.1,49.235C-48.774,52.252 -45.719,54.191 -42.082,54.191L-30.022,54.191C-28.588,54.191 -27.278,53.865 -26.113,53.331C-24.946,53.877 -23.657,54.191 -22.313,54.191L10.603,54.191C12.227,54.191 13.772,53.75 15.132,52.957C16.462,53.73 17.988,54.191 19.598,54.191L30.768,54.191C32.896,54.191 34.959,53.455 36.608,52.096C38.12,50.837 39.12,49.192 39.5,47.34L39.551,47.092L42.013,27.748L43.024,27.748C48.974,27.748 54.243,26.063 58.759,22.788L55.877,44.974C55.497,47.294 56.186,49.611 57.769,51.357C59.379,53.158 61.752,54.191 64.274,54.191L75.444,54.191C77.572,54.191 79.636,53.455 81.264,52.112C81.741,51.719 82.167,51.285 82.54,50.819C84.125,52.898 86.689,54.191 89.581,54.191L101.045,54.191C102.552,54.191 103.983,53.796 105.266,53.116C106.529,53.789 107.951,54.191 109.446,54.191L120.618,54.191C122.766,54.191 124.842,53.444 126.434,52.112C127.935,50.871 128.938,49.247 129.336,47.415L129.397,47.137L137.69,-16.733L137.69,-17.166C137.69,-21.841 134.005,-25.366 129.117,-25.366" style="fill:rgb(255,221,21);fill-rule:nonzero;"/>
        </g>
        <g transform="matrix(1,0,0,1,-671.029,240.833)">
            <path d="M0,-20.727C-1.613,-22.498 -3.969,-23.513 -6.465,-23.513L-9.895,-23.513L-9.688,-25.056L1.74,-25.056L0.998,-19.344C0.718,-19.829 0.39,-20.294 0,-20.727M97.026,-50.516L85.856,-50.516C83.538,-50.516 81.359,-49.664 79.702,-48.097C79.206,-47.624 78.773,-47.104 78.409,-46.546C76.91,-48.997 74.2,-50.516 71.029,-50.516L58.476,-50.516C56.679,-50.516 54.974,-49.992 53.513,-49.024C52.09,-49.974 50.384,-50.516 48.591,-50.516L37.322,-50.516C34.997,-50.516 32.815,-49.661 31.168,-48.097C30.991,-47.928 30.821,-47.753 30.661,-47.573C29.114,-49.392 26.738,-50.516 23.978,-50.516L12.809,-50.516C11.547,-50.516 10.336,-50.242 9.214,-49.756C8.096,-50.248 6.865,-50.516 5.595,-50.516L-27.223,-50.516C-29.542,-50.516 -31.719,-49.664 -33.388,-48.087C-34.659,-46.872 -35.512,-45.341 -35.857,-43.663L-35.906,-43.422L-44.124,19.834C-44.499,22.159 -43.804,24.48 -42.199,26.242C-40.585,28.021 -38.226,29.041 -35.724,29.041L-24.553,29.041C-22.427,29.041 -20.363,28.306 -18.724,26.955C-17.225,25.71 -16.224,24.082 -15.831,22.246L-15.772,21.971L-13.211,1.944L-7.947,1.944C-5.622,1.944 -3.439,1.089 -1.812,-0.455C-1.66,-0.599 -1.534,-0.761 -1.394,-0.913L-1.821,2.381C-2.006,3.509 -2.092,4.9 -2.092,6.734C-2.092,13.486 0.141,19.066 4.541,23.315C8.985,27.61 14.893,29.789 22.1,29.789C29.743,29.789 36.331,27.383 41.685,22.648C41.965,23.959 42.549,25.198 43.489,26.23C45.102,28.017 47.466,29.041 49.975,29.041L61.046,29.041C63.172,29.041 65.236,28.306 66.886,26.946C67.519,26.419 68.064,25.822 68.51,25.172C70.075,27.577 72.773,29.041 75.873,29.041L88.525,29.041C90.836,29.041 93.011,28.192 94.648,26.651C95.924,25.449 96.789,23.927 97.147,22.247L97.205,21.978L105.426,-41.308C105.795,-43.605 105.115,-45.91 103.489,-47.731C101.877,-49.501 99.521,-50.516 97.026,-50.516" style="fill:rgb(255,221,21);fill-rule:nonzero;"/>
        </g>
        <g transform="matrix(1,0,0,1,-414.961,270.622)">
            <path d="M0,-80.305L-11.168,-80.305C-13.488,-80.305 -15.668,-79.453 -17.347,-77.866C-17.833,-77.399 -18.259,-76.885 -18.617,-76.334C-20.116,-78.785 -22.825,-80.305 -25.998,-80.305L-38.551,-80.305C-40.348,-80.305 -42.053,-79.782 -43.513,-78.814C-44.937,-79.763 -46.645,-80.305 -48.437,-80.305L-59.705,-80.305C-62.037,-80.305 -64.222,-79.445 -65.858,-77.886C-66.036,-77.717 -66.205,-77.542 -66.366,-77.362C-67.912,-79.182 -70.288,-80.305 -73.048,-80.305L-84.217,-80.305C-86.537,-80.305 -88.716,-79.453 -90.373,-77.886C-91.619,-76.699 -92.463,-75.203 -92.825,-73.56C-97.062,-77.972 -102.901,-80.305 -109.719,-80.305L-129.093,-80.305C-131.413,-80.305 -133.59,-79.453 -135.259,-77.876C-136.523,-76.666 -137.376,-75.143 -137.724,-73.471L-137.776,-73.221L-145.996,-9.95C-146.369,-7.62 -145.67,-5.297 -144.08,-3.559C-142.467,-1.772 -140.103,-0.748 -137.594,-0.748L-126.424,-0.748C-124.297,-0.748 -122.235,-1.483 -120.595,-2.834C-120.122,-3.227 -119.699,-3.657 -119.329,-4.12C-117.744,-2.04 -115.181,-0.748 -112.29,-0.748L-100.823,-0.748C-98.518,-0.748 -96.346,-1.594 -94.688,-3.148C-93.668,-4.112 -92.973,-5.287 -92.565,-6.557C-92.537,-6.53 -92.514,-6.5 -92.487,-6.473C-88.042,-2.179 -82.135,0 -74.926,0C-67.284,0 -60.696,-2.406 -55.341,-7.141C-55.06,-5.824 -54.473,-4.579 -53.527,-3.547C-51.915,-1.768 -49.555,-0.748 -47.053,-0.748L-35.981,-0.748C-33.848,-0.748 -31.781,-1.486 -30.142,-2.843C-29.507,-3.37 -28.964,-3.967 -28.517,-4.617C-26.952,-2.212 -24.254,-0.748 -21.154,-0.748L-8.501,-0.748C-6.184,-0.748 -4.007,-1.6 -2.389,-3.129C-1.113,-4.325 -0.247,-5.845 0.119,-7.524L0.177,-7.801L8.402,-71.106C8.768,-73.414 8.081,-75.724 6.474,-77.508C4.862,-79.285 2.502,-80.305 0,-80.305" style="fill:rgb(255,221,21);fill-rule:nonzero;"/>
        </g>
        <g transform="matrix(1,0,0,1,-597.947,299.138)">
            <path d="M0,26.696C0.039,26.773 0.098,26.811 0.177,26.811L12.087,26.811C12.283,26.811 12.44,26.88 12.557,27.013C12.675,27.149 12.713,27.312 12.675,27.505L11.97,33.11C11.97,33.303 11.892,33.466 11.736,33.601C11.579,33.736 11.403,33.803 11.207,33.803L-9.857,33.803C-10.053,33.803 -10.209,33.736 -10.327,33.601C-10.444,33.466 -10.483,33.303 -10.444,33.11L-9.682,27.273C-9.682,26.966 -9.563,26.677 -9.329,26.406C-8.117,24.982 -6.885,23.596 -5.632,22.246C-1.682,17.817 1.115,14.524 2.758,12.365C5.535,8.591 6.924,5.472 6.924,3.005C6.924,2.005 6.709,1.234 6.278,0.695C5.848,0.155 5.261,-0.115 4.518,-0.115C3.618,-0.115 2.865,0.241 2.259,0.955C1.652,1.668 1.311,2.582 1.233,3.699L0.939,6.068C0.9,6.262 0.801,6.425 0.646,6.56C0.489,6.695 0.313,6.762 0.118,6.762L-6.63,6.762C-6.826,6.762 -6.982,6.695 -7.1,6.56C-7.217,6.425 -7.256,6.262 -7.217,6.068L-6.865,3.353C-6.317,0.195 -4.89,-2.339 -2.582,-4.246C-0.274,-6.152 2.503,-7.107 5.751,-7.107C8.605,-7.107 10.885,-6.259 12.586,-4.564C14.288,-2.868 15.139,-0.596 15.139,2.254C15.139,2.6 15.1,3.199 15.021,4.046C14.747,6.049 14.18,7.945 13.32,9.737C12.459,11.529 11.207,13.485 9.564,15.602C7.765,17.836 5.594,20.341 3.051,23.113C2.582,23.692 2.092,24.25 1.584,24.789C1.076,25.329 0.567,25.887 0.059,26.464C-0.02,26.543 -0.039,26.619 0,26.696" style="fill:white;fill-rule:nonzero;"/>
        </g>
        <g transform="matrix(1,0,0,1,-568.96,300.006)">
            <path d="M0,25.424C0.665,24.653 1.094,23.632 1.291,22.361L3.697,3.062C3.735,2.871 3.755,2.599 3.755,2.253C3.755,1.214 3.511,0.384 3.022,-0.231C2.532,-0.847 1.857,-1.156 0.997,-1.156C0.058,-1.156 -0.744,-0.77 -1.409,0.001C-2.074,0.77 -2.484,1.791 -2.641,3.062L-5.046,22.361C-5.086,22.554 -5.105,22.842 -5.105,23.228C-5.105,24.23 -4.871,25.039 -4.401,25.654C-3.931,26.272 -3.286,26.579 -2.465,26.579C-1.487,26.579 -0.666,26.195 0,25.424M-10.503,30.913C-12.264,29.142 -13.144,26.772 -13.144,23.805C-13.144,23.382 -13.105,22.747 -13.026,21.899L-10.738,3.524C-10.308,0.019 -8.929,-2.802 -6.602,-4.94C-4.274,-7.078 -1.448,-8.147 1.877,-8.147C4.929,-8.147 7.334,-7.271 9.094,-5.518C10.854,-3.764 11.735,-1.387 11.735,1.618C11.735,2.041 11.696,2.678 11.618,3.524L9.329,21.899C8.938,25.405 7.569,28.227 5.222,30.364C2.875,32.503 0.019,33.571 -3.345,33.571C-6.357,33.571 -8.743,32.684 -10.503,30.913" style="fill:white;fill-rule:nonzero;"/>
        </g>
        <g transform="matrix(1,0,0,1,-547.251,299.138)">
            <path d="M0,26.696C0.039,26.773 0.098,26.811 0.177,26.811L12.087,26.811C12.283,26.811 12.44,26.88 12.557,27.013C12.675,27.149 12.713,27.312 12.675,27.505L11.971,33.11C11.971,33.303 11.892,33.466 11.736,33.601C11.579,33.736 11.403,33.803 11.208,33.803L-9.857,33.803C-10.053,33.803 -10.209,33.736 -10.327,33.601C-10.444,33.466 -10.483,33.303 -10.444,33.11L-9.681,27.273C-9.681,26.966 -9.563,26.677 -9.329,26.406C-8.117,24.982 -6.885,23.596 -5.632,22.246C-1.682,17.817 1.115,14.524 2.759,12.365C5.535,8.591 6.924,5.472 6.924,3.005C6.924,2.005 6.709,1.234 6.279,0.695C5.848,0.155 5.262,-0.115 4.518,-0.115C3.618,-0.115 2.865,0.241 2.26,0.955C1.652,1.668 1.311,2.582 1.233,3.699L0.939,6.068C0.9,6.262 0.802,6.425 0.646,6.56C0.489,6.695 0.313,6.762 0.118,6.762L-6.63,6.762C-6.826,6.762 -6.982,6.695 -7.1,6.56C-7.216,6.425 -7.256,6.262 -7.216,6.068L-6.865,3.353C-6.317,0.195 -4.89,-2.339 -2.582,-4.246C-0.273,-6.152 2.503,-7.107 5.751,-7.107C8.606,-7.107 10.885,-6.259 12.586,-4.564C14.288,-2.868 15.139,-0.596 15.139,2.254C15.139,2.6 15.1,3.199 15.022,4.046C14.747,6.049 14.18,7.945 13.32,9.737C12.459,11.529 11.208,13.485 9.565,15.602C7.765,17.836 5.594,20.341 3.052,23.113C2.582,23.692 2.092,24.25 1.585,24.789C1.076,25.329 0.567,25.887 0.059,26.464C-0.02,26.543 -0.039,26.619 0,26.696" style="fill:white;fill-rule:nonzero;"/>
        </g>
        <g transform="matrix(1,0,0,1,-505.65,309.858)">
            <path d="M0,5.719C0.118,5.855 0.156,6.018 0.118,6.211L-0.586,12.162C-0.626,12.355 -0.714,12.518 -0.851,12.653C-0.988,12.788 -1.154,12.855 -1.35,12.855L-3.109,12.855C-3.344,12.855 -3.462,12.952 -3.462,13.144L-4.635,22.39C-4.635,22.583 -4.714,22.746 -4.87,22.881C-5.026,23.015 -5.203,23.083 -5.398,23.083L-12.028,23.083C-12.225,23.083 -12.38,23.015 -12.498,22.881C-12.615,22.746 -12.655,22.583 -12.615,22.39L-11.501,13.144C-11.423,12.952 -11.501,12.855 -11.735,12.855L-25.935,12.855C-26.366,12.855 -26.581,12.625 -26.581,12.162L-25.993,7.424L-25.758,6.557L-15.255,-16.786C-15.061,-17.172 -14.786,-17.364 -14.434,-17.364L-7.217,-17.364C-6.982,-17.364 -6.816,-17.297 -6.719,-17.162C-6.622,-17.026 -6.63,-16.823 -6.748,-16.555L-16.312,5.17C-16.352,5.402 -16.292,5.517 -16.136,5.517L-10.796,5.517C-10.601,5.517 -10.503,5.421 -10.503,5.228L-9.74,-0.781C-9.701,-0.974 -9.614,-1.137 -9.476,-1.272C-9.339,-1.406 -9.174,-1.474 -8.977,-1.474L-2.347,-1.474C-2.152,-1.474 -1.986,-1.406 -1.848,-1.272C-1.712,-1.137 -1.663,-0.974 -1.702,-0.781L-2.464,5.228C-2.464,5.421 -2.386,5.517 -2.23,5.517L-0.47,5.517C-0.274,5.517 -0.117,5.586 0,5.719" style="fill:white;fill-rule:nonzero;"/>
        </g>
        <g transform="matrix(1,0,0,1,-752.565,151.174)">
            <path d="M0,-13.544C1.515,-15.415 2.274,-17.967 2.274,-21.206C2.274,-23.386 1.762,-25.084 0.741,-26.298C-0.282,-27.514 -1.681,-28.12 -3.46,-28.12L-7.71,-28.12C-8.04,-28.12 -8.205,-27.965 -8.205,-27.654L-10.38,-11.21C-10.38,-10.898 -10.248,-10.744 -9.984,-10.744L-5.733,-10.744C-3.427,-10.744 -1.517,-11.676 0,-13.544M11.713,-35.034C14.513,-32.046 15.914,-28.09 15.914,-23.168C15.914,-21.611 15.848,-20.428 15.717,-19.619C14.99,-13.825 12.801,-9.185 9.144,-5.697C5.486,-2.207 1.054,-0.466 -4.152,-0.466L-11.269,-0.466C-11.533,-0.466 -11.731,-0.309 -11.861,0.003L-15.025,24.856C-15.091,25.168 -15.257,25.432 -15.519,25.65C-15.783,25.868 -16.08,25.977 -16.409,25.977L-27.578,25.977C-27.909,25.977 -28.172,25.868 -28.369,25.65C-28.567,25.432 -28.633,25.168 -28.567,24.856L-20.362,-38.398C-20.298,-38.71 -20.149,-38.973 -19.917,-39.193C-19.688,-39.409 -19.408,-39.521 -19.078,-39.521L0.296,-39.521C5.105,-39.521 8.912,-38.025 11.713,-35.034" style="fill:rgb(35,31,32);fill-rule:nonzero;"/>
        </g>
        <g transform="matrix(1,0,0,1,-712.287,124.126)">
            <path d="M0,40.646C1.219,39.429 1.96,37.828 2.224,35.833L6.276,4.813C6.341,4.564 6.375,4.192 6.375,3.693C6.375,2.01 5.914,0.671 4.991,-0.325C4.067,-1.321 2.817,-1.82 1.235,-1.82C-0.544,-1.82 -2.043,-1.214 -3.262,0.002C-4.482,1.216 -5.223,2.821 -5.486,4.813L-9.539,35.833C-9.606,36.084 -9.638,36.457 -9.638,36.953C-9.638,38.636 -9.177,39.977 -8.255,40.973C-7.332,41.969 -6.114,42.466 -4.597,42.466C-2.752,42.466 -1.22,41.86 0,40.646M-18.583,49.613C-21.648,46.843 -23.181,43.059 -23.181,38.261C-23.181,37.64 -23.115,36.644 -22.982,35.273L-19.127,5.373C-18.402,-0.231 -16.063,-4.717 -12.109,-8.08C-8.155,-11.443 -3.247,-13.126 2.618,-13.126C7.957,-13.126 12.173,-11.74 15.272,-8.967C18.367,-6.194 19.917,-2.411 19.917,2.385C19.917,3.008 19.85,4.004 19.719,5.373L15.864,35.273C15.139,40.879 12.783,45.363 8.796,48.726C4.809,52.089 -0.117,53.772 -5.981,53.772C-11.318,53.772 -15.52,52.386 -18.583,49.613" style="fill:rgb(35,31,32);fill-rule:nonzero;"/>
        </g>
        <g transform="matrix(1,0,0,1,-690.986,112.074)">
            <path d="M0,64.75C-0.198,64.532 -0.264,64.268 -0.198,63.957L8.007,0.796C8.071,0.484 8.22,0.221 8.45,0C8.681,-0.218 8.961,-0.327 9.291,-0.327L20.46,-0.327C21.186,-0.327 21.548,0.049 21.548,0.796L14.728,53.304C14.595,53.616 14.728,53.771 15.123,53.771L35.189,53.771C35.913,53.771 36.276,54.146 36.276,54.893L35.09,63.957C35.024,64.268 34.875,64.532 34.645,64.75C34.414,64.968 34.134,65.077 33.806,65.077L0.79,65.077C0.46,65.077 0.197,64.968 0,64.75" style="fill:rgb(35,31,32);fill-rule:nonzero;"/>
        </g>
        <g transform="matrix(1,0,0,1,-635.041,123.053)">
            <path d="M0,42.791L4.349,42.7C6.062,42.636 7.562,41.921 8.847,40.55C10.131,39.179 10.938,37.372 11.269,35.131L14.827,7.662C14.892,7.287 14.926,6.76 14.926,6.073C14.926,4.205 14.48,2.725 13.592,1.635C12.702,0.545 11.432,0 9.786,0L5.536,0C5.205,0 5.041,0.155 5.041,0.467L-0.396,42.324C-0.528,42.636 -0.396,42.791 0,42.791M-15.123,53.77C-15.321,53.552 -15.387,53.289 -15.321,52.977L-7.117,-10.183C-7.052,-10.495 -6.903,-10.759 -6.673,-10.979C-6.442,-11.197 -6.162,-11.306 -5.832,-11.306L11.465,-11.306C16.804,-11.306 21.004,-9.919 24.069,-7.147C27.133,-4.376 28.665,-0.653 28.665,4.018C28.665,4.641 28.6,5.574 28.468,6.821L24.612,35.97C23.887,41.453 21.563,45.845 17.644,49.145C13.723,52.447 8.83,54.097 2.965,54.097L-14.333,54.097C-14.663,54.097 -14.926,53.988 -15.123,53.77" style="fill:rgb(35,31,32);fill-rule:nonzero;"/>
        </g>
        <g transform="matrix(1,0,0,1,-589.768,132.395)">
            <path d="M0,24.107L8.599,24.107C8.927,24.107 9.094,23.952 9.094,23.641L7.907,-1.867C7.84,-2.055 7.742,-2.148 7.611,-2.148C7.478,-2.148 7.379,-2.055 7.314,-1.867L-0.296,23.641C-0.431,23.952 -0.332,24.107 0,24.107M9.982,43.727L9.587,34.759C9.653,34.635 9.619,34.524 9.489,34.433C9.356,34.338 9.225,34.291 9.094,34.291L-3.065,34.291C-3.46,34.291 -3.658,34.448 -3.658,34.759L-6.426,43.727C-6.623,44.413 -7.086,44.755 -7.81,44.755L-18.979,44.755C-19.77,44.755 -20.033,44.35 -19.77,43.542L2.471,-19.619C2.668,-20.303 3.129,-20.648 3.854,-20.648L16.803,-20.648C17.461,-20.648 17.856,-20.303 17.989,-19.619L23.722,43.542L23.722,43.82C23.722,44.444 23.36,44.755 22.635,44.755L11.07,44.755C10.345,44.755 9.982,44.413 9.982,43.727" style="fill:rgb(35,31,32);fill-rule:nonzero;"/>
        </g>
        <g transform="matrix(1,0,0,1,-541.04,112.074)">
            <path d="M0,64.75C-0.198,64.532 -0.264,64.268 -0.198,63.957L8.007,0.796C8.071,0.484 8.22,0.221 8.45,0C8.681,-0.218 8.961,-0.327 9.291,-0.327L20.46,-0.327C21.186,-0.327 21.547,0.049 21.547,0.796L18.484,24.339C18.417,24.59 18.467,24.73 18.631,24.76C18.795,24.793 18.912,24.684 18.978,24.433L34.497,0.515C34.826,-0.045 35.32,-0.327 35.98,-0.327L47.841,-0.327C48.301,-0.327 48.597,-0.218 48.731,0C48.861,0.221 48.796,0.548 48.533,0.981L30.84,27.89C30.773,27.954 30.723,28.03 30.691,28.124C30.658,28.217 30.642,28.326 30.642,28.45L41.12,63.769L41.218,64.142C41.218,64.765 40.856,65.077 40.131,65.077L28.071,65.077C27.413,65.077 27.018,64.795 26.886,64.235L20.065,39.757C20.065,39.569 19.981,39.493 19.818,39.524C19.653,39.554 19.504,39.633 19.373,39.757L16.013,44.616C15.946,44.679 15.88,44.755 15.815,44.849C15.749,44.942 15.715,45.052 15.715,45.176L13.344,63.957C13.277,64.268 13.112,64.532 12.849,64.75C12.585,64.968 12.289,65.077 11.96,65.077L0.79,65.077C0.46,65.077 0.197,64.968 0,64.75" style="fill:rgb(35,31,32);fill-rule:nonzero;"/>
        </g>
        <g transform="matrix(1,0,0,1,-452.425,166.171)">
            <path d="M0,-43.445C-0.232,-43.227 -0.511,-43.118 -0.839,-43.118L-20.905,-43.118C-21.236,-43.118 -21.4,-42.963 -21.4,-42.652L-23.376,-27.888C-23.376,-27.576 -23.245,-27.422 -22.981,-27.422L-11.416,-27.422C-11.087,-27.422 -10.823,-27.313 -10.625,-27.094C-10.428,-26.877 -10.364,-26.611 -10.428,-26.301L-11.614,-17.238C-11.68,-16.926 -11.829,-16.66 -12.06,-16.445C-12.29,-16.224 -12.57,-16.118 -12.899,-16.118L-24.366,-16.118C-24.761,-16.118 -24.958,-15.961 -24.958,-15.649L-26.836,-0.794C-26.969,-0.482 -26.836,-0.327 -26.441,-0.327L-6.474,-0.327C-6.146,-0.327 -5.866,-0.216 -5.634,-0.001C-5.404,0.22 -5.323,0.484 -5.387,0.795L-6.573,9.859C-6.639,10.17 -6.788,10.434 -7.017,10.652C-7.249,10.87 -7.529,10.979 -7.858,10.979L-40.774,10.979C-41.104,10.979 -41.367,10.87 -41.564,10.652C-41.763,10.434 -41.828,10.17 -41.763,9.859L-33.558,-53.301C-33.493,-53.613 -33.344,-53.877 -33.114,-54.097C-32.883,-54.316 -32.603,-54.424 -32.273,-54.424L0.644,-54.424C0.972,-54.424 1.236,-54.316 1.433,-54.097C1.631,-53.877 1.696,-53.613 1.631,-53.301L0.445,-44.24C0.379,-43.926 0.23,-43.663 0,-43.445" style="fill:rgb(35,31,32);fill-rule:nonzero;"/>
        </g>
        <g transform="matrix(1,0,0,1,-423.709,151.174)">
            <path d="M0,-13.544C1.515,-15.415 2.273,-17.967 2.273,-21.206C2.273,-23.386 1.762,-25.084 0.74,-26.298C-0.282,-27.514 -1.681,-28.12 -3.462,-28.12L-7.712,-28.12C-8.042,-28.12 -8.205,-27.965 -8.205,-27.654L-10.38,-11.21C-10.38,-10.898 -10.249,-10.744 -9.985,-10.744L-5.733,-10.744C-3.427,-10.744 -1.518,-11.676 0,-13.544M11.712,-35.034C14.512,-32.046 15.914,-28.09 15.914,-23.168C15.914,-21.611 15.847,-20.428 15.715,-19.619C14.989,-13.825 12.801,-9.185 9.144,-5.697C5.486,-2.207 1.054,-0.466 -4.154,-0.466L-11.27,-0.466C-11.533,-0.466 -11.731,-0.309 -11.863,0.003L-15.026,24.856C-15.092,25.168 -15.258,25.432 -15.52,25.65C-15.784,25.868 -16.082,25.977 -16.41,25.977L-27.58,25.977C-27.911,25.977 -28.173,25.868 -28.371,25.65C-28.569,25.432 -28.635,25.168 -28.569,24.856L-20.364,-38.398C-20.299,-38.71 -20.151,-38.973 -19.919,-39.193C-19.689,-39.409 -19.409,-39.521 -19.08,-39.521L0.295,-39.521C5.105,-39.521 8.91,-38.025 11.712,-35.034" style="fill:rgb(35,31,32);fill-rule:nonzero;"/>
        </g>
        <g transform="matrix(1,0,0,1,-387.237,165.377)">
            <path d="M0,-41.857L-2.076,-25.879C-2.209,-25.567 -2.076,-25.413 -1.682,-25.413L2.568,-25.413C4.808,-25.413 6.687,-26.348 8.205,-28.216C9.72,-30.084 10.476,-32.545 10.476,-35.597C10.476,-37.652 9.966,-39.287 8.945,-40.501C7.923,-41.717 6.556,-42.323 4.842,-42.323L0.493,-42.323C0.164,-42.323 0,-42.169 0,-41.857M4.743,10.838L0.691,-14.948C0.558,-15.196 0.394,-15.323 0.198,-15.323L-2.966,-15.323C-3.363,-15.323 -3.559,-15.166 -3.559,-14.854L-6.822,10.653C-6.889,10.965 -7.052,11.228 -7.315,11.447C-7.581,11.664 -7.875,11.773 -8.205,11.773L-19.376,11.773C-19.706,11.773 -19.968,11.664 -20.164,11.447C-20.363,11.228 -20.43,10.965 -20.363,10.653L-12.158,-52.507C-12.093,-52.819 -11.946,-53.083 -11.715,-53.303C-11.484,-53.521 -11.203,-53.63 -10.873,-53.63L8.5,-53.63C13.246,-53.63 17.035,-52.149 19.866,-49.192C22.7,-46.232 24.119,-42.293 24.119,-37.371C24.119,-35.878 24.052,-34.725 23.92,-33.914C23.459,-30.302 22.322,-27.078 20.51,-24.245C18.697,-21.408 16.407,-19.213 13.64,-17.657C13.509,-17.594 13.409,-17.518 13.342,-17.424C13.278,-17.331 13.278,-17.221 13.342,-17.097L18.582,10.466L18.582,10.653C18.582,10.965 18.466,11.228 18.236,11.447C18.005,11.664 17.727,11.773 17.396,11.773L5.931,11.773C5.271,11.773 4.875,11.462 4.743,10.838" style="fill:rgb(35,31,32);fill-rule:nonzero;"/>
        </g>
        <g transform="matrix(1,0,0,1,-362.23,112.074)">
            <path d="M0,64.75C-0.198,64.532 -0.263,64.268 -0.198,63.957L8.007,0.796C8.071,0.484 8.221,0.221 8.452,0C8.682,-0.218 8.961,-0.327 9.291,-0.327L20.461,-0.327C21.186,-0.327 21.547,0.049 21.547,0.796L13.345,63.957C13.278,64.268 13.112,64.532 12.849,64.75C12.586,64.968 12.289,65.077 11.961,65.077L0.791,65.077C0.461,65.077 0.198,64.968 0,64.75" style="fill:rgb(35,31,32);fill-rule:nonzero;"/>
        </g>
        <g transform="matrix(1,0,0,1,-661.136,201.738)">
            <path d="M0,57.463C-2.999,54.566 -4.498,50.688 -4.498,45.829C-4.498,44.334 -4.433,43.214 -4.3,42.466L1.63,-3.221C1.696,-3.533 1.843,-3.796 2.075,-4.017C2.306,-4.235 2.585,-4.344 2.916,-4.344L14.085,-4.344C14.809,-4.344 15.172,-3.969 15.172,-3.221L9.044,43.774C8.979,44.086 8.945,44.522 8.945,45.082C8.945,46.704 9.373,48.012 10.231,49.008C11.086,50.004 12.24,50.501 13.69,50.501C15.336,50.501 16.737,49.88 17.892,48.632C19.043,47.388 19.752,45.769 20.017,43.774L26.145,-3.221C26.209,-3.533 26.358,-3.796 26.59,-4.017C26.819,-4.235 27.099,-4.344 27.429,-4.344L38.698,-4.344C39.027,-4.344 39.292,-4.235 39.489,-4.017C39.687,-3.796 39.751,-3.533 39.687,-3.221L33.756,42.466C33.03,48.321 30.691,53.01 26.737,56.527C22.784,60.048 17.941,61.807 12.207,61.807C7.067,61.807 2.998,60.36 0,57.463" style="fill:rgb(0,147,69);fill-rule:nonzero;"/>
        </g>
        <g transform="matrix(1,0,0,1,-666.076,251.818)">
            <path d="M0,-43.445C-0.232,-43.227 -0.512,-43.118 -0.841,-43.118L-20.808,-43.118C-21.139,-43.118 -21.302,-42.963 -21.302,-42.652L-23.278,-27.888C-23.278,-27.576 -23.147,-27.422 -22.883,-27.422L-11.417,-27.422C-11.089,-27.422 -10.825,-27.313 -10.626,-27.094C-10.429,-26.877 -10.364,-26.611 -10.429,-26.301L-11.614,-17.238C-11.682,-16.926 -11.831,-16.66 -12.06,-16.445C-12.292,-16.224 -12.572,-16.117 -12.9,-16.117L-24.268,-16.117C-24.664,-16.117 -24.86,-15.961 -24.86,-15.649L-28.123,9.859C-28.189,10.17 -28.354,10.434 -28.617,10.652C-28.881,10.87 -29.178,10.979 -29.506,10.979L-40.677,10.979C-41.006,10.979 -41.269,10.87 -41.466,10.652C-41.665,10.434 -41.73,10.17 -41.665,9.859L-33.459,-53.301C-33.396,-53.613 -33.247,-53.877 -33.016,-54.097C-32.785,-54.315 -32.505,-54.424 -32.175,-54.424L0.642,-54.424C0.971,-54.424 1.235,-54.315 1.433,-54.097C1.63,-53.877 1.694,-53.613 1.63,-53.301L0.444,-44.24C0.378,-43.926 0.229,-43.663 0,-43.445" style="fill:rgb(0,147,69);fill-rule:nonzero;"/>
        </g>
        <g transform="matrix(1,0,0,1,-586.013,262.47)">
            <path d="M0,-64.749C0.231,-64.967 0.51,-65.076 0.841,-65.076L12.01,-65.076C12.338,-65.076 12.603,-64.967 12.801,-64.749C12.998,-64.528 13.064,-64.265 12.998,-63.953L4.794,-0.793C4.728,-0.481 4.58,-0.218 4.35,0.001C4.118,0.218 3.838,0.327 3.509,0.327L-9.143,0.327C-9.736,0.327 -10.131,0.016 -10.33,-0.608L-17.446,-36.766C-17.512,-36.953 -17.628,-37.029 -17.792,-36.999C-17.957,-36.966 -18.039,-36.859 -18.039,-36.672L-22.586,-0.793C-22.652,-0.481 -22.818,-0.218 -23.08,0.001C-23.344,0.218 -23.642,0.327 -23.97,0.327L-35.042,0.327C-35.371,0.327 -35.634,0.218 -35.831,0.001C-36.029,-0.218 -36.095,-0.481 -36.029,-0.793L-27.824,-63.953C-27.76,-64.265 -27.611,-64.528 -27.381,-64.749C-27.15,-64.967 -26.87,-65.076 -26.54,-65.076L-13.986,-65.076C-13.393,-65.076 -13.033,-64.764 -12.898,-64.141L-5.585,-27.983C-5.52,-27.796 -5.404,-27.717 -5.239,-27.75C-5.074,-27.781 -4.991,-27.89 -4.991,-28.077L-0.445,-63.953C-0.379,-64.265 -0.232,-64.528 0,-64.749" style="fill:rgb(0,147,69);fill-rule:nonzero;"/>
        </g>
        <g transform="matrix(1,0,0,1,-533.182,251.023)">
            <path d="M0,-41.857L-2.076,-25.879C-2.208,-25.567 -2.076,-25.413 -1.68,-25.413L2.57,-25.413C4.809,-25.413 6.687,-26.348 8.205,-28.216C9.72,-30.084 10.478,-32.545 10.478,-35.597C10.478,-37.652 9.967,-39.287 8.946,-40.501C7.923,-41.717 6.556,-42.323 4.844,-42.323L0.495,-42.323C0.164,-42.323 0,-42.169 0,-41.857M4.745,10.838L0.692,-14.948C0.559,-15.196 0.396,-15.323 0.198,-15.323L-2.966,-15.323C-3.361,-15.323 -3.558,-15.166 -3.558,-14.854L-6.82,10.653C-6.887,10.965 -7.052,11.228 -7.315,11.447C-7.579,11.664 -7.875,11.773 -8.204,11.773L-19.375,11.773C-19.704,11.773 -19.967,11.664 -20.164,11.447C-20.362,11.228 -20.428,10.965 -20.362,10.653L-12.158,-52.507C-12.093,-52.819 -11.944,-53.082 -11.714,-53.303C-11.483,-53.521 -11.203,-53.63 -10.873,-53.63L8.501,-53.63C13.246,-53.63 17.035,-52.149 19.868,-49.192C22.7,-46.232 24.119,-42.293 24.119,-37.371C24.119,-35.878 24.052,-34.725 23.92,-33.914C23.459,-30.302 22.322,-27.078 20.511,-24.245C18.697,-21.408 16.409,-19.213 13.642,-17.657C13.509,-17.594 13.41,-17.518 13.344,-17.424C13.278,-17.33 13.278,-17.221 13.344,-17.097L18.583,10.466L18.583,10.653C18.583,10.965 18.468,11.228 18.237,11.447C18.005,11.664 17.727,11.773 17.396,11.773L5.931,11.773C5.271,11.773 4.876,11.462 4.745,10.838" style="fill:rgb(0,147,69);fill-rule:nonzero;"/>
        </g>
        <g transform="matrix(1,0,0,1,-502.095,201.738)">
            <path d="M0,57.463C-2.999,54.566 -4.498,50.688 -4.498,45.829C-4.498,44.334 -4.432,43.214 -4.3,42.466L1.63,-3.221C1.696,-3.533 1.843,-3.796 2.075,-4.017C2.306,-4.235 2.585,-4.344 2.916,-4.344L14.085,-4.344C14.809,-4.344 15.172,-3.969 15.172,-3.221L9.044,43.774C8.979,44.086 8.945,44.522 8.945,45.082C8.945,46.704 9.373,48.012 10.231,49.008C11.086,50.004 12.241,50.501 13.69,50.501C15.336,50.501 16.737,49.88 17.892,48.632C19.043,47.388 19.752,45.769 20.017,43.774L26.145,-3.221C26.209,-3.533 26.358,-3.796 26.59,-4.017C26.819,-4.235 27.1,-4.344 27.429,-4.344L38.698,-4.344C39.027,-4.344 39.292,-4.235 39.489,-4.017C39.687,-3.796 39.751,-3.533 39.687,-3.221L33.756,42.466C33.031,48.321 30.691,53.01 26.737,56.527C22.784,60.048 17.941,61.807 12.207,61.807C7.067,61.807 2.998,60.36 0,57.463" style="fill:rgb(0,147,69);fill-rule:nonzero;"/>
        </g>
        <g transform="matrix(1,0,0,1,-426.972,262.47)">
            <path d="M0,-64.749C0.23,-64.967 0.509,-65.076 0.842,-65.076L12.01,-65.076C12.339,-65.076 12.602,-64.967 12.801,-64.749C12.999,-64.528 13.063,-64.265 12.999,-63.953L4.794,-0.793C4.727,-0.481 4.58,-0.218 4.349,0.001C4.119,0.218 3.839,0.327 3.51,0.327L-9.144,0.327C-9.736,0.327 -10.132,0.016 -10.33,-0.608L-17.447,-36.766C-17.512,-36.953 -17.629,-37.029 -17.792,-36.999C-17.958,-36.966 -18.039,-36.859 -18.039,-36.672L-22.587,-0.793C-22.652,-0.481 -22.819,-0.218 -23.08,0.001C-23.344,0.218 -23.642,0.327 -23.97,0.327L-35.042,0.327C-35.372,0.327 -35.634,0.218 -35.832,0.001C-36.03,-0.218 -36.096,-0.481 -36.03,-0.793L-27.825,-63.953C-27.761,-64.265 -27.612,-64.528 -27.381,-64.749C-27.15,-64.967 -26.87,-65.076 -26.541,-65.076L-13.986,-65.076C-13.394,-65.076 -13.033,-64.764 -12.899,-64.141L-5.585,-27.983C-5.519,-27.796 -5.403,-27.717 -5.24,-27.75C-5.073,-27.781 -4.99,-27.89 -4.99,-28.077L-0.445,-63.953C-0.378,-64.265 -0.231,-64.528 0,-64.749" style="fill:rgb(0,147,69);fill-rule:nonzero;"/>
        </g>
        <g transform="matrix(1,0,0,1,-724.639,38.9331)">
            <path d="M0,-41.549C-0.03,-40.893 -0.008,-40.248 0.064,-39.622C0.166,-38.755 0.34,-38.123 0.525,-37.455C0.842,-36.311 1.234,-34.896 1.011,-32.942C1.068,-32.991 1.12,-33.036 1.168,-33.077C1.23,-33.13 1.303,-33.184 1.372,-33.257C1.354,-33.269 1.357,-33.335 1.365,-33.382C1.701,-35.408 2.933,-38.926 4.392,-42.987C4.761,-44.015 5.07,-44.874 5.235,-45.379C6.025,-47.799 6.234,-50.879 5.86,-54.57C5.102,-54.227 4.33,-53.914 3.546,-53.631C3.546,-53.311 3.539,-52.991 3.524,-52.673C3.351,-48.823 2.137,-45 0,-41.549M1.779,53.394C0.393,51.645 -0.463,49.726 -0.765,47.692C-1.087,45.52 -0.63,44.018 -0.327,43.024C-0.113,42.324 -0.034,42.062 -0.121,41.424C-0.182,40.976 -0.302,40.6 -0.454,40.124C-0.799,39.045 -1.271,37.566 -0.951,35.423C-0.787,34.332 -0.449,33.267 0.054,32.254L0.532,31.292L1.442,30.723C2.029,30.357 2.551,29.967 3.004,29.554C2.337,29.465 1.7,29.269 1.102,28.97C-1.369,27.733 -2.093,25.225 -2.331,24.401C-3.334,20.916 -4.059,18.401 -3.559,14.751C-3.03,10.888 -1.427,7.885 0.097,5.806C0.062,5.037 -0.01,4.28 -0.117,3.545C-0.168,3.188 -0.222,2.878 -0.27,2.602C-0.479,1.383 -0.716,0.001 -0.11,-1.651C-0.022,-1.889 0.086,-2.142 0.223,-2.405L-0.248,-2.405L-0.519,-5.907C-0.951,-11.521 -0.886,-17.187 -0.323,-22.748C-0.206,-23.904 -0.065,-25.07 0.095,-26.228C-0.275,-26.793 -0.512,-27.341 -0.653,-27.856C-1.196,-26.727 -1.838,-25.642 -2.569,-24.619L-4.197,-22.342L-10.15,-24.325L-14.294,-31.338L-13.472,-33.139C-12.776,-34.664 -12.234,-36.264 -11.861,-37.894C-11.583,-39.107 -11.392,-40.385 -11.295,-41.693C-11.115,-44.143 -11.348,-45.609 -11.595,-47.16C-11.823,-48.589 -12.081,-50.209 -11.949,-52.334C-11.766,-55.267 -10.902,-58.196 -9.378,-61.044C-8.651,-62.838 -7.605,-64.329 -6.266,-65.478C-5.066,-66.505 -3.984,-66.956 -3.114,-67.319C-2.518,-67.567 -2.001,-67.783 -1.295,-68.237C-1.008,-68.46 -0.022,-69.284 1.018,-70.154L1.476,-70.536C4.91,-73.409 5.833,-74.181 7.802,-74.584C8.17,-74.659 8.326,-74.678 8.796,-74.713C9.085,-74.734 9.62,-74.772 10.935,-74.917C12.064,-75.041 12.629,-75.1 13.08,-75.171C13.749,-75.278 14.002,-75.349 14.459,-75.479C14.959,-75.619 15.643,-75.813 16.911,-76.071C16.911,-76.071 17.833,-76.254 17.963,-76.279L17.963,-76.829C17.884,-76.901 17.808,-76.976 17.733,-77.053C16.288,-78.541 16.114,-80.29 16.03,-81.13C15.966,-81.77 15.834,-83.098 16.588,-84.528C16.592,-84.536 16.596,-84.544 16.6,-84.551C16.47,-85.96 16.568,-87.643 17.209,-89.431C17.685,-90.754 18.419,-92 19.333,-93.032C21.069,-94.999 23.126,-96.182 25.445,-96.544C25.929,-96.619 26.42,-96.657 26.908,-96.657C28.344,-96.657 30.542,-96.316 32.855,-94.692C35.645,-92.734 36.591,-90.05 36.947,-89.04C37.943,-86.217 37.732,-83.642 37.306,-81.83C37.303,-80.857 37.247,-79.887 37.138,-78.938C36.984,-77.588 36.863,-76.518 36.307,-75.201C35.986,-74.439 35.575,-73.724 35.076,-73.061C35.165,-73.003 35.25,-72.947 35.333,-72.894C36.101,-72.4 36.694,-72.051 37.226,-71.74C38.068,-71.245 38.863,-70.778 39.894,-70.019C40.261,-69.749 40.624,-69.466 40.979,-69.174C42.287,-69.011 43.494,-68.546 44.515,-67.807C46.899,-66.08 47.398,-63.595 47.728,-61.951C48.358,-58.811 47.91,-56.233 47.514,-53.958C47.278,-52.601 47.064,-51.823 46.922,-51.308C46.789,-50.821 46.787,-50.812 46.779,-50.441C46.77,-49.988 47.047,-48.204 47.34,-46.315L47.521,-45.151C47.761,-43.627 47.852,-43.057 47.849,-42.053C47.843,-39.87 47.419,-38.179 47.167,-37.366C46.563,-35.405 45.567,-33.596 44.208,-31.993L43.041,-30.616L37.221,-30.735L36.044,-32.159C35.643,-30.958 35.223,-30.187 34.865,-29.528C34.488,-28.834 34.261,-28.415 34.009,-27.268C33.759,-26.127 33.748,-24.674 33.726,-21.778C33.709,-19.788 33.763,-18.611 33.82,-17.363C33.858,-16.522 33.895,-15.695 33.911,-14.664C33.957,-11.583 33.775,-8.402 33.37,-5.21L32.897,-1.485L32.315,-1.552C32.262,0.064 32.063,2.008 31.366,3.954C30.437,6.548 29.026,7.961 28.092,8.895C27.291,9.698 27.283,9.748 27.223,10.135L27.197,10.311C27.118,10.855 26.954,11.987 26.615,13.465C26.312,14.784 25.997,15.835 25.36,16.996C25.157,17.367 24.933,17.726 24.689,18.073C24.585,18.893 24.42,19.702 24.194,20.49C23.131,24.204 21.007,26.541 19.865,27.796L19.736,27.939C17.812,30.062 15.873,32.627 13.962,35.572C13.929,36.29 13.92,37.011 13.934,37.725C14.003,41.403 14.681,45.08 15.947,48.657L17.487,53.008L3.138,55.108L1.779,53.394Z" style="fill:white;fill-rule:nonzero;"/>
        </g>
        <g transform="matrix(1,0,0,1,-712.268,-53.1133)">
            <path d="M0,141.969C-2.54,142.341 -5.079,142.712 -7.619,143.084C-8.25,142.289 -9.121,140.957 -9.384,139.181C-9.783,136.496 -8.339,135.846 -8.734,132.956C-9.011,130.933 -9.878,130.084 -9.57,128.031C-9.437,127.144 -9.146,126.443 -8.92,125.988C-6.329,124.37 -5.053,122.601 -4.367,121.249C-3.8,120.133 -3.849,119.721 -2.137,112.515C-1.542,110.011 -1.375,109.382 -0.836,108.519C0.148,106.945 1.222,106.432 1.766,104.802C2.138,103.687 2.058,102.66 1.951,102.015L1.951,95.697C0.434,97.307 -1.084,98.918 -2.602,100.529C-3.442,102.706 -3.764,104.501 -3.902,105.732C-4.043,106.982 -4.004,107.724 -4.181,109.727C-4.366,111.816 -4.444,112.862 -4.646,113.537C-4.818,114.114 -5.792,117.373 -7.991,117.811C-8.233,117.859 -8.909,117.957 -9.57,117.625C-10.502,117.158 -10.849,116.118 -11.057,115.395C-12.003,112.11 -12.562,110.169 -12.172,107.311C-11.608,103.188 -9.504,100.365 -8.455,99.135C-8.447,97.39 -8.596,95.995 -8.734,95.047C-8.98,93.35 -9.255,92.615 -8.92,91.701C-8.479,90.501 -7.294,89.836 -6.411,89.471L-6.411,85.848L-9.107,85.848C-9.48,81.013 -9.517,75.579 -8.92,69.68C-8.745,67.948 -8.524,66.275 -8.27,64.663C-9.318,63.74 -9.462,63.117 -9.384,62.712C-9.243,61.979 -8.353,61.829 -7.712,60.668C-7.364,60.038 -7.298,59.489 -7.248,59.181C-6.852,56.797 -4.168,49.796 -3.531,47.845C-2.537,44.802 -1.879,39.83 -3.624,31.492C-4.638,32.198 -5.845,32.939 -7.248,33.629C-9.308,34.644 -11.226,35.273 -12.822,35.674C-12.666,36.719 -12.578,37.905 -12.636,39.204C-12.844,43.826 -14.779,47.325 -16.074,49.239C-16.249,50.808 -16.169,52.052 -16.074,52.863C-15.746,55.67 -14.85,56.604 -15.145,58.809C-15.27,59.746 -15.545,60.426 -15.981,61.504C-16.639,63.129 -17.421,64.375 -18.025,65.22L-19.977,64.57C-20.782,63.207 -21.587,61.845 -22.393,60.482C-21.781,59.143 -21.059,57.287 -20.534,55C-20.358,54.231 -20.034,52.672 -19.884,50.633C-19.495,45.358 -20.769,43.723 -20.534,39.948C-20.424,38.172 -19.962,35.634 -18.304,32.607C-17.672,30.955 -16.818,30.006 -16.167,29.448C-14.751,28.234 -13.697,28.36 -11.521,26.94C-11.316,26.805 -10.514,26.136 -8.92,24.803C-5.387,21.848 -4.889,21.399 -3.81,21.179C-3.379,21.091 -3.516,21.174 -1.022,20.9C0.201,20.766 0.812,20.699 1.301,20.621C3.026,20.348 2.954,20.169 5.296,19.692C6.347,19.478 6.995,19.386 8.083,19.042C8.637,18.867 9.084,18.697 9.385,18.577L9.385,13.002C9.083,12.953 8.53,12.811 8.083,12.352C7.56,11.812 7.495,11.154 7.433,10.54C7.388,10.086 7.355,9.7 7.573,9.285C7.774,8.902 8.089,8.69 8.27,8.589C8.054,7.805 7.668,5.962 8.409,3.896C8.849,2.669 9.509,1.86 9.803,1.527C10.252,1.018 11.518,-0.415 13.659,-0.749C16.004,-1.115 17.782,0.092 18.304,0.459C20.068,1.697 20.696,3.409 20.999,4.268C21.855,6.697 21.392,8.846 21.138,9.75C21.159,10.946 21.083,11.943 20.999,12.677C20.858,13.914 20.778,14.574 20.441,15.371C19.992,16.436 19.332,17.166 18.862,17.601L18.862,20.947C19.659,21.521 20.357,21.987 20.906,22.34C22.887,23.617 23.781,23.982 25.273,25.081C26.053,25.656 26.676,26.195 27.131,26.615C27.722,26.57 28.901,26.574 29.919,27.311C31.078,28.15 31.359,29.454 31.638,30.842C32.118,33.237 31.785,35.259 31.406,37.439C30.951,40.051 30.647,39.992 30.616,41.527C30.6,42.29 30.807,43.641 31.22,46.312C31.603,48.788 31.687,49.121 31.684,49.983C31.679,51.879 31.264,53.266 31.173,53.56C30.615,55.366 29.697,56.711 28.943,57.602L26.667,57.555C26.156,56.936 25.645,56.316 25.134,55.697C23.855,53.922 23.647,52.517 23.693,51.562C23.779,49.801 24.8,48.16 24.065,47.056C23.999,46.955 23.797,46.654 23.508,46.637C23.137,46.617 22.741,47.071 22.486,47.799C22.23,48.567 21.86,49.757 21.51,51.237C20.799,54.238 20.968,55.056 20.488,57.183C19.662,60.842 18.676,60.574 17.933,63.967C17.598,65.493 17.586,67.075 17.561,70.238C17.534,73.68 17.709,74.925 17.747,77.439C17.778,79.516 17.716,82.571 17.236,86.359C16.833,86.313 16.431,86.266 16.028,86.219C16.095,86.833 16.163,87.677 16.167,88.682C16.175,90.31 16.187,92.591 15.424,94.721C14.097,98.429 11.604,98.386 11.104,101.597C11.045,101.974 10.903,103.104 10.546,104.663C10.292,105.774 10.072,106.473 9.663,107.219C9.309,107.865 8.923,108.345 8.641,108.659C8.608,109.344 8.506,110.343 8.177,111.492C7.32,114.485 5.55,116.339 4.553,117.439C2.818,119.354 0.532,122.184 -2.137,126.406C-2.216,127.493 -2.252,128.641 -2.23,129.844C-2.139,134.639 -1.139,138.75 0,141.969" style="fill:rgb(190,30,45);fill-rule:nonzero;"/>
        </g>
        <g transform="matrix(1,0,0,1,-389.751,51.2764)">
            <path d="M0,-66.236L-0.447,-67.295C-1.38,-69.553 -1.888,-71.256 -2.379,-72.903C-3.166,-75.537 -3.908,-78.024 -6.001,-81.644C-6.885,-83.176 -7.631,-84.269 -8.674,-85.153L-3.415,-90.3L-11.167,-91.615L-11.164,-91.639L-11.942,-91.77C-11.96,-91.777 -11.977,-91.784 -11.994,-91.792C-11.994,-92.099 -11.989,-92.45 -11.987,-92.79C-11.982,-93.035 -11.977,-93.459 -11.987,-94.033C-12.009,-95.434 -12.079,-96.607 -12.772,-97.899C-13.381,-99.024 -14.177,-99.668 -14.472,-99.907C-15,-100.335 -15.523,-100.638 -16.016,-100.858C-16.047,-101.268 -16.093,-101.726 -16.166,-102.225C-16.423,-103.991 -16.852,-106.947 -19.128,-109.442C-20.008,-110.408 -21.528,-111.7 -23.767,-112.371C-24.693,-112.648 -25.656,-112.788 -26.628,-112.788C-29.009,-112.788 -30.856,-111.939 -31.552,-111.619C-33.92,-110.531 -35.435,-108.901 -36.292,-107.722C-36.819,-106.994 -37.917,-105.481 -38.303,-103.235C-38.509,-102.046 -38.429,-101.139 -38.376,-100.541C-38.368,-100.454 -38.362,-100.384 -38.358,-100.326C-38.478,-100.164 -38.611,-99.971 -38.739,-99.746L-38.966,-99.354L-39.104,-98.923C-40.072,-95.918 -39.589,-93.108 -37.791,-91.04C-37.701,-90.724 -37.604,-90.349 -37.55,-90.145L-37.401,-89.583C-37.181,-88.795 -36.849,-88.044 -36.406,-87.334C-38.064,-87.14 -39.586,-86.862 -41.243,-86.014C-42.545,-85.348 -43.48,-84.553 -44.075,-84.009C-44.915,-83.239 -45.661,-82.362 -46.29,-81.403L-47.085,-80.193L-46.245,-68.213L-46.187,-67.928C-45.889,-66.499 -45.82,-65.049 -45.979,-63.614C-46.232,-61.346 -47.025,-59.497 -47.782,-58.187C-49.188,-57.191 -50.259,-55.791 -50.806,-54.198C-51.622,-51.823 -51.067,-49.809 -50.888,-49.158C-50.705,-48.487 -50.364,-47.238 -49.307,-46.064C-47.999,-44.614 -46.003,-43.748 -43.971,-43.748C-43.613,-43.748 -43.262,-43.774 -42.918,-43.826C-43.737,-40.167 -44.169,-36.056 -43.836,-31.631C-43.243,-23.7 -40.382,-17.297 -39.161,-14.561C-38.185,-12.378 -37.068,-10.241 -35.83,-8.193C-36.505,3.861 -36.326,6.798 -36.282,7.275C-35.875,11.629 -35.022,15.035 -33.475,21.22C-33.082,22.786 -32.663,24.366 -32.22,25.938C-33.219,27.077 -34.17,28.623 -34.592,30.628C-34.754,31.409 -35.25,33.785 -34.13,36.304C-33.466,37.796 -32.555,38.627 -32.012,39.124C-31.973,39.158 -31.934,39.193 -31.893,39.229C-31.892,39.301 -31.896,39.421 -31.926,39.599L-32.341,42.077L-30.385,43.654C-28.064,45.523 -25.418,46.552 -22.931,46.552C-21.167,46.552 -19.566,46.028 -18.298,45.032C-16.807,43.861 -16.102,42.273 -15.815,41.438C-14.621,37.968 -16.205,34.862 -16.715,33.997C-16.817,33.826 -16.917,33.668 -17.015,33.522C-16.942,33.182 -16.881,32.789 -16.851,32.346C-16.681,29.964 -17.493,28.167 -17.763,27.569C-17.998,27.053 -18.274,26.558 -18.588,26.091C-18.397,23.553 -18.354,20.996 -18.461,18.468C-18.495,17.667 -18.544,16.865 -18.606,16.072C-17.803,14.708 -17.242,13.279 -16.931,11.809C-16.528,9.894 -16.648,8.46 -16.776,6.941C-16.82,6.436 -16.863,5.921 -16.894,5.332C-15.418,5.221 -14.081,4.721 -12.996,3.868C-10.915,2.233 -10.517,-0.012 -10.197,-1.816L-10.166,-1.983C-9.991,-2.958 -9.764,-3.922 -9.536,-4.886C-9.188,-6.369 -8.828,-7.904 -8.608,-9.544C-8.382,-11.244 -8.08,-12.93 -7.761,-14.716C-7.529,-16.015 -7.297,-17.315 -7.095,-18.616C-6.156,-24.63 -5.529,-28.008 -5.114,-30.243C-4.52,-33.434 -4.32,-34.509 -4.441,-37.011C-4.731,-43.036 -4.908,-46.737 -7.399,-50.294C-6.669,-50.037 -5.742,-49.819 -4.71,-49.819C-3.479,-49.819 -2.297,-50.141 -1.291,-50.75C0.686,-51.949 1.801,-54.075 2.022,-57.068C2.304,-60.833 1.08,-63.704 0,-66.236" style="fill:white;fill-rule:nonzero;"/>
        </g>
        <g transform="matrix(1,0,0,1,-403.423,47.3018)">
            <path d="M0,-58.176L0.809,-66.715L3.865,-58.176L0,-58.176ZM-9.977,-10.001C-10.376,-11.548 -10.725,-13.261 -10.965,-15.124C-11.565,-19.787 -11.288,-23.878 -10.785,-27.078C-10.553,-26.519 -10.259,-25.756 -9.977,-24.831C-9.66,-23.798 -8.891,-21.035 -8.898,-17.371C-8.903,-14.34 -9.438,-11.816 -9.977,-10.001M9.258,-61.681C6.75,-67.752 7.051,-70.167 3.955,-75.523C2.981,-77.206 2.487,-77.772 1.798,-78.219C-0.315,-79.59 -2.217,-78.526 -6.292,-79.837C-7.957,-80.372 -8.501,-80.827 -8.808,-81.364C-9.144,-81.952 -9.187,-82.623 -8.718,-85.139C-8.527,-86.164 -8.242,-87.549 -7.819,-89.184C-7.019,-86.754 -5.956,-85.12 -5.213,-84.151C-4.601,-83.353 -4.082,-82.844 -3.325,-82.533C-2.097,-82.028 -0.929,-82.324 -0.539,-82.443C0.351,-82.716 0.939,-83.211 1.237,-83.502C0.911,-83.557 0.556,-83.644 0.18,-83.791C-0.366,-84.005 -0.745,-84.256 -0.989,-84.421C-1.579,-84.818 -1.964,-85.077 -2.247,-85.499C-2.637,-86.082 -2.626,-86.996 -2.606,-88.824C-2.604,-89.033 -2.597,-89.429 -2.606,-89.993C-2.625,-91.182 -2.69,-91.537 -2.876,-91.881C-3.072,-92.244 -3.329,-92.457 -3.505,-92.599C-4.513,-93.417 -5.356,-93.046 -6.021,-93.498C-6.841,-94.055 -6.382,-95.171 -6.741,-97.633C-6.96,-99.141 -7.239,-101.052 -8.628,-102.576C-9.002,-102.986 -9.904,-103.859 -11.325,-104.283C-13.5,-104.934 -15.36,-104.079 -16.088,-103.744C-17.711,-102.998 -18.68,-101.866 -19.144,-101.228C-19.555,-100.661 -20.185,-99.794 -20.402,-98.531C-20.634,-97.186 -20.193,-96.582 -20.492,-95.116C-20.663,-94.279 -21.113,-94.038 -21.346,-93.633C-22.176,-91.06 -20.958,-89.896 -20.492,-89.499C-20.204,-89.253 -19.783,-87.438 -19.593,-86.757C-19.424,-86.149 -19.039,-85.314 -18.065,-84.421C-17.85,-83.962 -17.267,-82.562 -17.796,-81.095C-17.901,-80.803 -18.078,-80.329 -18.515,-79.926C-19.172,-79.322 -19.912,-79.343 -21.211,-79.208C-23.057,-79.014 -24.32,-78.882 -25.615,-78.219C-26.542,-77.744 -27.21,-77.139 -27.502,-76.871C-28.208,-76.223 -28.701,-75.576 -29.031,-75.073C-28.791,-71.658 -28.551,-68.242 -28.312,-64.827C-28.021,-63.428 -27.785,-61.469 -28.042,-59.165C-28.468,-55.34 -30.031,-52.545 -31.008,-51.075C-31.297,-50.937 -32.573,-50.288 -33.075,-48.829C-33.458,-47.715 -33.188,-46.723 -33.075,-46.312C-32.943,-45.83 -32.82,-45.379 -32.446,-44.964C-31.607,-44.034 -29.951,-43.778 -29.031,-44.425C-28.525,-44.78 -28.485,-45.236 -28.042,-46.672C-27.781,-47.516 -27.2,-49.398 -26.604,-50.447C-26.088,-51.354 -25.083,-52.479 -22.919,-53.323C-22.41,-51.885 -21.9,-50.447 -21.391,-49.009C-23.516,-44.856 -26.583,-37.277 -25.885,-27.977C-25.356,-20.931 -22.836,-15.172 -21.571,-12.338C-20.239,-9.358 -18.855,-6.989 -17.796,-5.327C-18.581,8.213 -18.335,10.85 -18.335,10.85C-17.96,14.873 -17.159,18.077 -15.639,24.153C-14.893,27.133 -14.185,29.599 -13.661,31.342C-14.117,31.62 -16.186,32.946 -16.717,35.477C-16.835,36.04 -17.096,37.28 -16.538,38.533C-15.958,39.835 -15.025,39.96 -14.38,41.229C-13.877,42.22 -13.857,43.303 -14.021,44.285C-11.517,46.302 -8.712,46.758 -7.28,45.634C-6.609,45.106 -6.29,44.273 -6.202,44.015C-5.576,42.197 -6.566,40.446 -6.741,40.151C-7.311,39.183 -7.747,39.204 -7.909,38.443C-8.098,37.556 -7.551,37.313 -7.46,36.016C-7.369,34.737 -7.814,33.728 -7.999,33.32C-8.414,32.406 -8.972,31.788 -9.347,31.432C-9.073,28.786 -8.941,25.832 -9.078,22.624C-9.132,21.345 -9.225,20.115 -9.347,18.94C-8.139,17.315 -7.668,15.883 -7.46,14.895C-7.023,12.827 -7.493,11.57 -7.55,8.334C-7.582,6.518 -7.467,5.042 -7.37,4.11C-6.544,4.495 -3.625,5.764 -1.977,4.469C-1.152,3.821 -1,2.808 -0.719,1.234C-0.277,-1.236 0.477,-3.65 0.809,-6.137C1.219,-9.207 1.859,-12.243 2.337,-15.304C4.59,-29.738 5.109,-29.372 4.943,-32.83C4.667,-38.585 4.529,-41.462 2.606,-44.065C1.935,-44.975 0.215,-46.974 -0.359,-50.087C-0.557,-51.159 -0.566,-52.073 -0.539,-52.694C2.067,-51.974 4.674,-51.256 7.28,-50.536C7.567,-50.405 9.026,-49.762 10.156,-50.447C10.632,-50.735 11.264,-51.387 11.415,-53.412C11.648,-56.558 10.411,-58.888 9.258,-61.681" style="fill:rgb(0,161,75);fill-rule:nonzero;"/>
        </g>
    </g>
    <g transform="matrix(1.29809,0,0,1.29809,-2003.05,-1766.04)">
        <g transform="matrix(62.5,0,0,62.5,1679.55,1424.6)">
            <path d="M0.027,-0L0.149,-0.688L0.547,-0.688C0.586,-0.688 0.619,-0.68 0.648,-0.664C0.676,-0.647 0.698,-0.624 0.714,-0.595C0.73,-0.566 0.738,-0.532 0.738,-0.494C0.738,-0.456 0.732,-0.421 0.72,-0.388C0.707,-0.355 0.69,-0.326 0.667,-0.301C0.644,-0.276 0.616,-0.257 0.585,-0.243C0.553,-0.229 0.517,-0.222 0.478,-0.222L0.287,-0.222L0.248,-0L0.027,-0ZM0.316,-0.383L0.431,-0.383C0.45,-0.383 0.465,-0.387 0.477,-0.395C0.488,-0.403 0.497,-0.414 0.503,-0.427C0.508,-0.44 0.511,-0.455 0.511,-0.471C0.511,-0.488 0.506,-0.502 0.496,-0.511C0.485,-0.52 0.47,-0.525 0.449,-0.525L0.341,-0.525L0.316,-0.383Z" style="fill-rule:nonzero;"/>
        </g>
        <g transform="matrix(62.5,0,0,62.5,1722.05,1424.6)">
            <path d="M0.377,0.012C0.308,0.012 0.249,0.002 0.2,-0.019C0.151,-0.04 0.113,-0.071 0.088,-0.112C0.063,-0.153 0.05,-0.203 0.05,-0.264C0.05,-0.278 0.051,-0.293 0.053,-0.308C0.054,-0.323 0.056,-0.338 0.059,-0.354C0.072,-0.43 0.096,-0.494 0.131,-0.545C0.166,-0.596 0.212,-0.635 0.27,-0.661C0.328,-0.687 0.399,-0.7 0.482,-0.7C0.552,-0.7 0.611,-0.69 0.661,-0.669C0.709,-0.648 0.747,-0.617 0.772,-0.576C0.797,-0.535 0.81,-0.483 0.81,-0.421C0.81,-0.408 0.809,-0.394 0.808,-0.379C0.807,-0.364 0.805,-0.349 0.802,-0.334C0.789,-0.258 0.764,-0.194 0.729,-0.143C0.693,-0.092 0.646,-0.053 0.588,-0.027C0.529,-0.001 0.459,0.012 0.377,0.012ZM0.396,-0.153C0.42,-0.153 0.442,-0.157 0.462,-0.165C0.481,-0.172 0.498,-0.183 0.513,-0.197C0.528,-0.211 0.54,-0.228 0.55,-0.248C0.559,-0.267 0.566,-0.289 0.57,-0.312C0.573,-0.331 0.576,-0.347 0.578,-0.36C0.58,-0.372 0.582,-0.382 0.583,-0.389C0.584,-0.396 0.584,-0.402 0.585,-0.406C0.585,-0.41 0.585,-0.414 0.585,-0.417C0.585,-0.441 0.58,-0.462 0.572,-0.48C0.563,-0.497 0.549,-0.511 0.531,-0.521C0.513,-0.53 0.49,-0.535 0.463,-0.535C0.439,-0.535 0.417,-0.531 0.398,-0.524C0.378,-0.516 0.361,-0.505 0.347,-0.491C0.332,-0.477 0.32,-0.46 0.311,-0.441C0.301,-0.421 0.294,-0.399 0.29,-0.376C0.287,-0.356 0.284,-0.34 0.282,-0.328C0.28,-0.315 0.279,-0.305 0.278,-0.298C0.277,-0.291 0.276,-0.285 0.276,-0.281C0.275,-0.277 0.275,-0.273 0.275,-0.27C0.275,-0.247 0.279,-0.226 0.288,-0.209C0.297,-0.191 0.31,-0.177 0.328,-0.168C0.346,-0.158 0.369,-0.153 0.396,-0.153Z" style="fill-rule:nonzero;"/>
        </g>
        <g transform="matrix(62.5,0,0,62.5,1771.55,1424.6)">
            <path d="M0.027,-0L0.149,-0.688L0.37,-0.688L0.279,-0.176L0.622,-0.176L0.591,-0L0.027,-0Z" style="fill-rule:nonzero;"/>
        </g>
        <g transform="matrix(62.5,0,0,62.5,1807.8,1424.6)">
            <path d="M0.028,-0L0.149,-0.688L0.437,-0.688C0.54,-0.688 0.619,-0.667 0.674,-0.624C0.729,-0.581 0.756,-0.514 0.756,-0.425C0.756,-0.411 0.756,-0.397 0.755,-0.382C0.753,-0.367 0.751,-0.351 0.748,-0.334C0.735,-0.258 0.711,-0.195 0.676,-0.146C0.641,-0.097 0.596,-0.06 0.541,-0.036C0.486,-0.012 0.421,-0 0.346,-0L0.028,-0ZM0.278,-0.165L0.351,-0.165C0.376,-0.165 0.397,-0.168 0.416,-0.175C0.435,-0.182 0.451,-0.191 0.464,-0.204C0.477,-0.217 0.488,-0.232 0.497,-0.251C0.506,-0.27 0.512,-0.291 0.516,-0.314C0.521,-0.339 0.524,-0.359 0.526,-0.372C0.528,-0.385 0.529,-0.394 0.53,-0.401C0.531,-0.407 0.531,-0.412 0.531,-0.416C0.531,-0.439 0.527,-0.458 0.519,-0.474C0.51,-0.49 0.498,-0.502 0.481,-0.511C0.464,-0.519 0.441,-0.523 0.414,-0.523L0.341,-0.523L0.278,-0.165Z" style="fill-rule:nonzero;"/>
        </g>
        <g transform="matrix(62.5,0,0,62.5,1852.99,1424.6)">
            <path d="M-0.037,-0L0.337,-0.688L0.594,-0.688L0.722,-0L0.495,-0L0.483,-0.097L0.241,-0.097L0.195,-0L-0.037,-0ZM0.314,-0.251L0.464,-0.251L0.451,-0.361C0.45,-0.372 0.448,-0.384 0.447,-0.395C0.446,-0.406 0.444,-0.418 0.443,-0.429C0.441,-0.44 0.439,-0.451 0.438,-0.462C0.437,-0.473 0.435,-0.485 0.434,-0.496L0.43,-0.496C0.423,-0.481 0.416,-0.467 0.409,-0.452C0.402,-0.436 0.395,-0.422 0.388,-0.407L0.314,-0.251Z" style="fill-rule:nonzero;"/>
        </g>
        <g transform="matrix(62.5,0,0,62.5,1911.05,1424.6)">
            <path d="M0.027,-0L0.149,-0.688L0.37,-0.688L0.32,-0.407L0.606,-0.688L0.889,-0.688L0.592,-0.405L0.772,-0L0.519,-0L0.417,-0.259L0.273,-0.135L0.248,-0L0.027,-0Z" style="fill-rule:nonzero;"/>
        </g>
        <g transform="matrix(62.5,0,0,62.5,1955.12,1424.6)">
            <path d="M0.027,-0L0.149,-0.688L0.744,-0.688L0.715,-0.523L0.341,-0.523L0.324,-0.428L0.644,-0.428L0.616,-0.27L0.296,-0.27L0.277,-0.165L0.658,-0.165L0.629,-0L0.027,-0Z" style="fill-rule:nonzero;"/>
        </g>
        <g transform="matrix(62.5,0,0,62.5,1997.74,1424.6)">
            <path d="M0.027,-0L0.149,-0.688L0.547,-0.688C0.586,-0.688 0.619,-0.68 0.648,-0.664C0.676,-0.647 0.698,-0.624 0.714,-0.595C0.73,-0.566 0.738,-0.532 0.738,-0.494C0.738,-0.456 0.732,-0.421 0.72,-0.388C0.707,-0.355 0.69,-0.326 0.667,-0.301C0.644,-0.276 0.616,-0.257 0.585,-0.243C0.553,-0.229 0.517,-0.222 0.478,-0.222L0.287,-0.222L0.248,-0L0.027,-0ZM0.316,-0.383L0.431,-0.383C0.45,-0.383 0.465,-0.387 0.477,-0.395C0.488,-0.403 0.497,-0.414 0.503,-0.427C0.508,-0.44 0.511,-0.455 0.511,-0.471C0.511,-0.488 0.506,-0.502 0.496,-0.511C0.485,-0.52 0.47,-0.525 0.449,-0.525L0.341,-0.525L0.316,-0.383Z" style="fill-rule:nonzero;"/>
        </g>
        <g transform="matrix(62.5,0,0,62.5,2040.24,1424.6)">
            <path d="M0.028,-0L0.149,-0.688L0.57,-0.688C0.617,-0.688 0.655,-0.68 0.686,-0.664C0.717,-0.648 0.74,-0.627 0.755,-0.601C0.77,-0.574 0.777,-0.545 0.777,-0.512C0.777,-0.469 0.771,-0.432 0.758,-0.401C0.745,-0.37 0.727,-0.343 0.704,-0.322C0.681,-0.3 0.654,-0.282 0.623,-0.268L0.711,-0L0.466,-0L0.402,-0.231L0.29,-0.231L0.249,-0L0.028,-0ZM0.317,-0.384L0.462,-0.384C0.475,-0.384 0.489,-0.388 0.502,-0.396C0.515,-0.403 0.526,-0.414 0.535,-0.427C0.544,-0.44 0.548,-0.456 0.548,-0.473C0.548,-0.49 0.543,-0.504 0.534,-0.515C0.525,-0.526 0.512,-0.531 0.497,-0.531L0.342,-0.531L0.317,-0.384Z" style="fill-rule:nonzero;"/>
        </g>
        <g transform="matrix(62.5,0,0,62.5,2085.68,1424.6)">
            <path d="M0.027,-0L0.149,-0.688L0.37,-0.688L0.248,-0L0.027,-0Z" style="fill-rule:nonzero;"/>
        </g>
    </g>
    <g transform="matrix(1.03603,0,0,1.03603,177.55,141.769)">
        <g transform="matrix(64.4663,0,0,64.4663,0,0)">
            <path d="M0.027,-0L0.149,-0.688L0.705,-0.688L0.676,-0.523L0.341,-0.523L0.32,-0.405L0.608,-0.405L0.58,-0.247L0.292,-0.247L0.248,-0L0.027,-0Z" style="fill:rgb(0,147,69);fill-rule:nonzero;"/>
        </g>
        <g transform="matrix(64.4663,0,0,64.4663,39.9046,0)">
            <path d="M0.378,0.012C0.283,0.012 0.208,-0.007 0.153,-0.046C0.098,-0.084 0.071,-0.141 0.071,-0.218C0.071,-0.228 0.072,-0.238 0.073,-0.249C0.074,-0.26 0.075,-0.271 0.077,-0.282L0.149,-0.688L0.37,-0.688L0.298,-0.28C0.297,-0.275 0.297,-0.269 0.296,-0.264C0.295,-0.259 0.295,-0.253 0.295,-0.248C0.295,-0.219 0.303,-0.196 0.32,-0.179C0.336,-0.162 0.361,-0.153 0.396,-0.153C0.437,-0.153 0.469,-0.165 0.494,-0.189C0.519,-0.213 0.534,-0.243 0.541,-0.28L0.613,-0.688L0.834,-0.688L0.76,-0.267C0.749,-0.205 0.727,-0.153 0.694,-0.112C0.661,-0.071 0.618,-0.04 0.565,-0.019C0.511,0.002 0.449,0.012 0.378,0.012Z" style="fill:rgb(0,147,69);fill-rule:nonzero;"/>
        </g>
        <g transform="matrix(64.4663,0,0,64.4663,87.2229,0)">
            <path d="M0.027,-0L0.149,-0.688L0.335,-0.688L0.504,-0.425C0.511,-0.414 0.519,-0.403 0.527,-0.391C0.534,-0.378 0.542,-0.366 0.549,-0.355C0.556,-0.343 0.562,-0.332 0.567,-0.323L0.572,-0.325C0.573,-0.338 0.575,-0.35 0.577,-0.361C0.578,-0.371 0.58,-0.382 0.582,-0.394L0.632,-0.688L0.834,-0.688L0.712,-0L0.527,-0L0.336,-0.289C0.33,-0.298 0.323,-0.31 0.315,-0.323C0.307,-0.336 0.3,-0.348 0.294,-0.359L0.289,-0.358C0.288,-0.343 0.286,-0.329 0.284,-0.316C0.281,-0.303 0.279,-0.293 0.278,-0.286L0.229,-0L0.027,-0Z" style="fill:rgb(0,147,69);fill-rule:nonzero;"/>
        </g>
        <g transform="matrix(64.4663,0,0,64.4663,148.595,0)">
            <path d="M0.028,-0L0.149,-0.688L0.57,-0.688C0.617,-0.688 0.655,-0.68 0.686,-0.664C0.717,-0.648 0.74,-0.627 0.755,-0.601C0.77,-0.574 0.777,-0.545 0.777,-0.512C0.777,-0.469 0.771,-0.432 0.758,-0.401C0.745,-0.37 0.727,-0.343 0.704,-0.322C0.681,-0.3 0.654,-0.282 0.623,-0.268L0.711,-0L0.466,-0L0.402,-0.231L0.29,-0.231L0.249,-0L0.028,-0ZM0.317,-0.384L0.462,-0.384C0.475,-0.384 0.489,-0.388 0.502,-0.396C0.515,-0.403 0.526,-0.414 0.535,-0.427C0.544,-0.44 0.548,-0.456 0.548,-0.473C0.548,-0.49 0.543,-0.504 0.534,-0.515C0.525,-0.526 0.512,-0.531 0.497,-0.531L0.342,-0.531L0.317,-0.384Z" style="fill:rgb(0,147,69);fill-rule:nonzero;"/>
        </g>
        <g transform="matrix(64.4663,0,0,64.4663,194.817,0)">
            <path d="M0.378,0.012C0.283,0.012 0.208,-0.007 0.153,-0.046C0.098,-0.084 0.071,-0.141 0.071,-0.218C0.071,-0.228 0.072,-0.238 0.073,-0.249C0.074,-0.26 0.075,-0.271 0.077,-0.282L0.149,-0.688L0.37,-0.688L0.298,-0.28C0.297,-0.275 0.297,-0.269 0.296,-0.264C0.295,-0.259 0.295,-0.253 0.295,-0.248C0.295,-0.219 0.303,-0.196 0.32,-0.179C0.336,-0.162 0.361,-0.153 0.396,-0.153C0.437,-0.153 0.469,-0.165 0.494,-0.189C0.519,-0.213 0.534,-0.243 0.541,-0.28L0.613,-0.688L0.834,-0.688L0.76,-0.267C0.749,-0.205 0.727,-0.153 0.694,-0.112C0.661,-0.071 0.618,-0.04 0.565,-0.019C0.511,0.002 0.449,0.012 0.378,0.012Z" style="fill:rgb(0,147,69);fill-rule:nonzero;"/>
        </g>
        <g transform="matrix(64.4663,0,0,64.4663,242.135,0)">
            <path d="M0.027,-0L0.149,-0.688L0.335,-0.688L0.504,-0.425C0.511,-0.414 0.519,-0.403 0.527,-0.391C0.534,-0.378 0.542,-0.366 0.549,-0.355C0.556,-0.343 0.562,-0.332 0.567,-0.323L0.572,-0.325C0.573,-0.338 0.575,-0.35 0.577,-0.361C0.578,-0.371 0.58,-0.382 0.582,-0.394L0.632,-0.688L0.834,-0.688L0.712,-0L0.527,-0L0.336,-0.289C0.33,-0.298 0.323,-0.31 0.315,-0.323C0.307,-0.336 0.3,-0.348 0.294,-0.359L0.289,-0.358C0.288,-0.343 0.286,-0.329 0.284,-0.316C0.281,-0.303 0.279,-0.293 0.278,-0.286L0.229,-0L0.027,-0Z" style="fill:rgb(0,147,69);fill-rule:nonzero;"/>
        </g>
    </g>
</svg>
